<svg version="1.2" xmlns="http://www.w3.org/2000/svg" viewBox="0 0 1080 1350" width="1080" height="1350">
	<style>
		.s0 { fill: #231f20 } 
	</style>
	<g id="Tree_05">
		<path id="&lt;Path&gt;" class="s0" d="m336.87 520.72c5.02-2.38 2.18-7.04 5.22-7.33 2.1-0.78 4.94-0.52 6.59-2.07 1.58-2.74-2.14-6.01 0.24-8.64 0.57-3.75-6.2-7.04-4.86-12.22 2.36 0.01 4.65-0.94 6.32-2.62 0.81-1.1-3.9-2-2.34-6.19 1.84-5.11 8.07-0.11 9.77-4.38-0.82-4.59 6.01-1.05 8.28-8.89 0.12-0.34 0.41-1.23 0.9-1.09 0.64 0.2 0.91-0.8 0.27-1q-0.53-0.05-0.9 0.11c0.31-0.61 0.8-1.12 1.43-1.43 4.21-0.23 3.99-4.33 5.19-7.43 0.14-0.92-1.38-0.5-1.43-1.72 0.64-4.1 6.59-5.4 10.07-4.3 0.25 0.08 0.58-0.09 0.64-0.36 2.66-6.62 13.36-0.79 10.88 5.36-1.01-0.37-1.58-1.01-1.34-2.03 0.43-0.51-0.3-1.25-0.73-0.73-0.86 2.01 0 3.15 1.67 3.73-0.84 1.63-2.36 2.91-4.2 3.24-0.31 0.05-0.5 0.5-0.31 0.76q0.8 1.11 1.6 2.22c0.39 0.54 1.3 0.02 0.9-0.52q-0.59-0.82-1.18-1.65c1.87-0.58 3.37-2.02 4.21-3.78 3.63 0.71 9.45-0.36 11.27-1.17 0.8-0.99 0.28-2.72 0.26-4.13 4.46 0.95 5.46-6.17 0.31-6.06-0.65 0.09-0.66 1.13 0 1.04 3.69-0.17 2.96 5.09-0.52 3.91-1.43-0.33-0.62 3-0.67 4.38-1.83 0.69-7.13 1.62-10.26 1.06 2.81-7.23-9.33-13.62-12.71-6.39-3.99-1-9.43 0.54-10.88 4.63-0.22 1.09 0.26 2.23 1.22 2.69-0.73 1.92-0.75 5.05-2.59 5.85-1.9 0.2-3.7 1.33-4.11 3.29-0.06 0.27 0.07 0.47 0.25 0.57-0.62 1.16-0.86 2.9-1.85 3.68-2.5 3.37-6.82 0.99-6.89 6.34-0.85 1.12-2.57 0.67-3.73 0.54-5.69-0.81-8.32 6.66-3.73 9.58-1.52 1.28-3.46 1.94-5.46 1.85-2.75 3.73 2 8.53 4.07 11.69 0.78 1.24-0.7 2.14-0.71 3.39 1.55 9.36 2.12 5.21-6.57 8.35-1.39 0.82-0.79 2.6-1.32 3.88-0.49 1.35-1.51 2.45-2.8 3.09-0.6 0.3-0.07 1.19 0.53 0.9z"/>
		<path id="&lt;Compound Path&gt;" fill-rule="evenodd" class="s0" d="m328.01 526.02c-4.51-5.75 1.35-4.62 5.41-4.67 2.62 1.98-5.48 0.38-5.99 1.33-0.25 0.81 0.74 1.48 1.09 2.15 2.36 2.91-2.31 3.69-1.34 6.48 0.95 2.29 2.57 1.34 3.54 1.49 1.5-1.53 3.74-1.68 5.28 0.22 1.87-9.43-2.08-9.46 5.43-7.01 0.96 0.17 2.67 0.52 3.31-0.45 0.76-9.58-1.17-3.85 8.5-7.32 2.84 1.2-5.18 2.41-7.22 2.44-0.39 1.88 0.82 4.38-0.73 5.84-2.22 1.5-5.29 0.39-7.63-0.73-0.07 2.74-0.28 10.57-1.92 8.71-1.17-2.24-3.07-2.28-4.32-0.96 0.58 1.51-0.04 3.23-1.23 4.27 0.11 1.32 0.58 2.82 1.57 4.41 0.28 0.6-0.62 1.13-0.9 0.53-0.93-1.55-1.44-3-1.64-4.31-0.61 0.28-1.3 0.4-2.01 0.29-0.66-0.11-0.38-1.11 0.28-1 0.59 0.09 1.15-0.06 1.63-0.37-0.04-1.32 0.24-2.46 0.73-3.38-3.24 0.37-5.33-4.13-2.41-6.33 0.53-0.48 0.88-0.92 0.57-1.63zm2.56 8.88q-0.22 0.54-0.32 1.19 0.28-0.57 0.32-1.19z"/>
		<path id="&lt;Path&gt;" class="s0" d="m314.42 583.87c-0.78-2.05-1.48-4.7-0.18-6.7 2.42-3.51 5.02-0.21 5.22-1.76 0.22-1.68 3.79-0.99 4.41-2.99 1.23-2.87-3.65-4.58-2.98-7.24 3.02-0.63 1.48-4.5 1.73-6.67 0.39-1.32 1.63-3.15 0.08-4.18-0.88-0.54-1.93-0.08-2.88-0.31-2.74-0.75-3.73-4.54-1.92-6.65 1.46-1.81 4.05-2.49 6.29-2.12 0.65 0.11 0.94-0.89 0.27-1-9.05-1.83-12.27 10.86-2.85 10.84 1.44 0.07 0.55 1.68 0.25 2.44-1.23 2.26 1.61 6.11-1.81 6.93-2.22 3.33 7.12 7.42 0.55 8.83-0.81 0.25-1.8 0.62-2.1 1.4-5.26-1.75-7.32 5.41-5.08 9.46 0.23 0.61 1.24 0.35 1-0.28z"/>
		<path id="&lt;Path&gt;" class="s0" d="m319.58 598.9c1.14-0.45 1.27-1.92 0.51-2.8-0.94-1.02-2.45-1.09-3.53-1.91-1.9-1.32-3.57-4.1-1.95-6.24 0.41-0.53-0.5-1.04-0.9-0.52-2.22 3.09 0.6 7.14 3.66 8.37 0.83 0.26 2.9 1.02 1.93 2.1-0.62 0.25-0.35 1.25 0.28 1z"/>
		<path id="&lt;Path&gt;" class="s0" d="m320.97 602.93c-0.38 0.58-1.77 1.15-1.22 1.93 0.89 0.78 3.31-2.67 1.22-1.93z"/>
		<path id="&lt;Path&gt;" class="s0" d="m321.1 640.08c4.05 2.18 5.58 5.15 1.21 8.5-1.78 2.62 1.4 4.35 0.79 2.33-1.41-2.13 3.47-3.53 2.94-6.17 0.68-2.14-5.38-7.41-5.79-5.42-0.07 1.3-2.08 0.98-2.79 0.54-4.93-2.92-0.37-12.36-3.13-14.24-3.02 1.01-9.17-0.01-7.11-4.32 0.36-0.43-0.09-1.14-0.63-0.81-5.33 1.07-2.69-8.23-0.12-9.9 1.72-1 3.5 0.52 5.3 0.41 4.52 0.37 7.7-6.61 4.98-4.78-2.28 5.45-5.62 3.14-9.75 3.05-4.51 1.05-6.86 12.89-0.99 12.33-1.51 4.29 4.21 6.13 8.05 5.18 0.54 3.09-0.49 6.24 0.08 9.35 0.41 2.27 1.93 5.13 4.59 5.17 0.97 0.01 1.96-0.4 2.37-1.22z"/>
		<path id="&lt;Path&gt;" class="s0" d="m337.83 695.27c-0.59-0.32-1.12 0.58-0.53 0.9 0.52 0.29 0.45 0.99 0.16 1.43-0.94 1.23-2.71-1.35-3.86 0.85-0.89 3.72-4.12 1.67-4.8-0.98-0.82-3.79-4.33-5.14-7.81-5.11 3.02-2.15 6.3-4.96 5.87-8.81-0.3-1.74-1.79-3.22-3.62-3.17-3.4 0.27-0.36-1.73-1.75-3.31-3.38-2.76-3.07-7.39-1.75-11.16 0.94-1.91 3.61-1.15 5.3-1.31 4.04-0.3 6.82-5.18 4.6-8.68-1.24-3-7.63-3.86-5.28-1.95 5.22-0.19 6.91 7.25 2.03 9.24-2.39 1.04-5.79-0.66-7.43 1.97-1.27 3.33-2.02 7.8 0.22 10.88 0.51 0.63 1.61 1.31 1.68 2.18-1.5 4.28 1.82 2.35 3.99 3.73 3.47 4.14-2.84 8.51-5.98 10.61-0.41 0.25-0.28 1 0.27 0.96 10.94-2.22 7.15 10.26 14.16 7.51 1.02-0.57 0.76-3.04 2.31-2.35 2.22 1.51 4.39-2.08 2.22-3.43z"/>
		<path id="&lt;Path&gt;" class="s0" d="m348.31 703.83c1.27-0.06 0.76-3.31 1.19-4.34 1.94-2.33-10.34-7.21-8.3-4.3 2.71 0.55 5.26 1.72 7.42 3.42-0.12 1.59-1.17 4.3-0.31 5.22z"/>
		<path id="&lt;Path&gt;" class="s0" d="m389.01 767.28c-1.65-1.39-4.27-0.09-5.78-1.74-4.34-8.8-11.17 1.7-17.38 0.57-5.15-1.07-2.49-7.21-4.03-10.68-1.37-3.41-4.44-4-6.99-1.35-1.83 1.3-5.04 0.97-5.66-1.48-0.26-0.96-0.06-2.01 0.7-2.69 0.39-0.34-0.02-1.03-0.5-0.87-7.07 2.09-10.51-8.16-3.53-10.65 2.6-0.28 4.93-1.1 6.57-3.27 0.65-1.14 9.09-7.56 6.81-7.88-4.08 0.03-7.35-0.92-7.47-5.39-2.08-1.47-3.81-3.35-5.11-5.53-0.34-0.57-1.24-0.05-0.9 0.52 1.33 2.23 3.1 4.15 5.19 5.68-0.48 3.81 3.54 5.55 6.95 5.76-4.05 3.84-7.33 8.83-13.21 9.48-6.9 3.47-3.31 13.37 3.65 12.56-1.44 3.05 2.22 6.74 5.65 5.3 1.85-0.4 3.12-3.08 5.16-1.95 5.05 3.6-1.35 13.77 8.38 13.56 5.05-0.05 11.37-8.48 14.75-1.24 1.44 2.21 4.43 0.85 6.23 2.22 0.34 0.36 1.01 1.51 0.24 1.79-1.72 2.06 3.61 0.77 0.28-2.72z"/>
		<path id="&lt;Path&gt;" class="s0" d="m341.75 721.76c0.59 1.19 0.39 2.7 1.62 3.52 2.13 1.5 3.11-1.77 1.29-0.75-0.32 0.46-1.08-0.44-1.21-0.69-0.92-6.25-4.52-1.47-4.11-5.39 0.41-1.46 1.83-2.49 1.97-4.06 0.32-1.7-1.26-3.44-0.34-5.04 0.3-0.45 0.97-1.04 1.45-0.51 0.45 0.5 1.19-0.23 0.74-0.73-1.21-1.35-3.04 0.15-3.45 1.47-0.28 0.94 0.08 1.97 0.33 2.89 1.33 2.94-2.99 4.94-1.5 7.83 0.6 1.48 2.41 0.46 3.21 1.46z"/>
		<path id="&lt;Path&gt;" class="s0" d="m398.89 788.76c0.31-0.59-0.59-1.12-0.9-0.52-0.73 1.43-3.11 1.24-3.85-0.1-0.34-0.68-0.1-1.51-0.26-2.23-0.22-1.59-2.24-1.63-2.85-2.87-0.61-1.06 2.74-16.99 0.24-13.59-0.22 4.67-1.54 9.48-1.15 14.1 0.68 1.52 3.27 1.53 2.8 3.62-0.17 3.1 4.55 4.28 5.97 1.59z"/>
		<path id="&lt;Path&gt;" class="s0" d="m424.76 807.83c-2.96 1.14-2.41 5.97-6.24 5.97-2.37 0.21-4.45-1.8-4.51-4.13 0-0.24-0.15-0.43-0.38-0.5-2.6-0.82-5.21-1.59-7.79-2.46-6.37-1.52-3.67-6.89-8.15-9.72-0.26-1.54 2.22-2.13 2.97-3.32 1.21-0.39 4.56-9.14 1.85-6.52-0.23 3.62-2.78 6.19-5.46 8.3-1.79 2.15 1.62 2.88 2.13 4.65 0.93 7.5 7.89 7.97 13.81 9.94 0.3 4.34 6.11 6.5 9.1 3.12 1.41-1.77 1.5-4.55 4.31-4.74 2.96-1.24 8.95-0.5 6.86 3.92-0.64 3.4 2.61 1.22 0.92 0.84 0-0.06 0-0.13 0-0.12 2.7-6.24-5.18-7.29-9.42-5.23z"/>
		<path id="&lt;Path&gt;" class="s0" d="m503.22 834.77c-3.82 1.26 1.23 5.28-3.72 7.38-5.18 2.4-8.98-3.31-10.93-7.31-1.12-1.01-2.14 2.53-2.91 3.67-1.38 0.02-5.46-1.05-5.02 0.45 1.98 4.06-4.41 5.78-4.77 1.28 0.02-0.51-0.72-0.71-0.97-0.26-1.42 2.78-5.85 1.41-5.41-1.69 0.21-1.78-3.72 1.53-7.65 1.33 2.57-4.31 0.69-10.48-4.13-12.34-1.21-0.39-4.06-1.47-4.81-0.16-0.06 6.34-6.93 4.19-10.07 1.35-3.3-2.63-5.59-6.43-6.44-10.54-0.49-2.33-0.48-4.75 0.07-7.07 0.16-0.65-0.85-0.92-1-0.27-4.35 13.8 16.23 30.19 18.41 17.01 6.23-0.46 10.5 7.14 6.62 12.17-0.19 1.92 5.65 0.38 7.96-0.7 0.29 3.11 4.42 4.57 6.62 2.41 1.42 4.36 8.21 2.39 6.8-2.21 4.47 0.33 4.2 0.89 6.26-3.06 1.96 3.57 4.88 7.99 9.45 7.53 3.59-0.22 6.51-3.51 5.06-7.05 0-0.69 0.7-0.94 1.28-1 2.5-0.25 4.85 2.33 4.46 4.77 1.99 3.32 1.6-7.06-5.16-5.69z"/>
		<path id="&lt;Path&gt;" class="s0" d="m531.06 848.58c0.2 1.92-2.61 1.89-3.84 2.08-1.61 0.25-2.92 1.27-4.47 1.66-3.82 0.78-4.96-3.87-4.88-6.78-0.12-1.28-2.39 0.65-3.88 1.22 0.35-3.11-0.38-6.29-2.12-8.92-0.37-0.56-1.27-0.04-0.9 0.52 4.59 6.09-1.39 12.48 5.89 8.09 0.35 5.93 3.73 8.91 9.68 5.43 2.05-0.49 5.67-0.33 5.56-3.3-0.07-0.66-1.11-0.66-1.04 0z"/>
		<path id="&lt;Path&gt;" class="s0" d="m580.76 834.9c-4.34 6.28 0.74 20.66-10.81 9.13-0.2-0.25-0.68-0.18-0.81 0.1-1.1 2.22-3.15 5.86-6.16 5.33-3.06-0.68-3.9-4.39-6.66-5.62-1.23-0.68-2.34-0.64-3.14-0.34-1.72-1.48 0-2.92-5.13 3.88-0.14 0.18-0.07 0.48 0.08 0.62 2.13 2.41-0.88 5.49-3.58 5.19-2.84 0.02-5.57-1.59-7.21-3.84-0.92-1.26-1.55-2.73-1.73-4.28-0.08-0.66-1.12-0.67-1.04 0 1.4 11.85 18.89 11.38 14.52 2.63q1.46-1.96 2.92-3.91 0.11 0.15 0.23 0.29c-0.56 0.55-0.5 1.15 0.53 0.88q0.13-0.1 0.26-0.18c1.56 1.04 3.69 1.04 3.25 0.28 3.7 2.61 7.05 11.07 13.39 0.23 3.78 4.17 10.66 6.93 9.71-1.72 0.23-2.39 1.31-9.25 4.03-9.63 0.15 0.07 0.51 0.48 0.29 0.63-0.56 0.36-0.04 1.26 0.53 0.89 2.04-2.32-2.17-4.05-3.47-0.56z"/>
		<path id="&lt;Path&gt;" class="s0" d="m599.55 839.04c-3.99-0.99 1.89-8.71-4.63-7.37 1.68-5.62-9.84-11.62-11.72-4.65-0.76 0.83 0.91 8.52 1.9 5.63-5.44-12.83 11.62-7.16 8.47-0.48-0.44 2.13 3.78-1.51 3.74 1.77-2.57 8.27 7.64 8.24 8.58 0.92-1.21-3.25-1.11 5.96-6.34 4.18z"/>
		<path id="&lt;Path&gt;" class="s0" d="m626.6 826.5c5.04 9.37-3.43 11.59-9.51 7.04 0.06-2-3.7-3.36-2.99-1.42q0.88 1.06 1.88 1.88c-0.25 1.64-2.01 3.79-3.24 3.4-2.18-2.52-4.51-6.77-8.54-5.43-0.63 0.23-0.36 1.23 0.27 1 3.41-1.08 5.38 2.61 7.16 4.81 1.9 2.1 4.57-0.8 5.28-3.07 6.93 4.79 16.05 1.38 10.59-8.73-0.36-0.56-1.26-0.04-0.9 0.52z"/>
		<path id="&lt;Compound Path&gt;" fill-rule="evenodd" class="s0" d="m731.94 751.44c-1.57 3.2-5.98 4.43-8.99 2.54-0.42 1.35-0.87 3.88-1.92 2.65-1.07-3.04-6.4-3.25-7.66-0.24-0.5 0.59-0.79 0.36-0.98-0.27q-0.01-0.01-0.03-0.01 0.01-0.02 0.02-0.04c-0.36-1.36-0.23-4.5-0.31-5.91-1.32 0.42-3.43 1.65-4.04 0.78-0.5-1.7-3.07-1.94-4.15-0.69 2.54 1.64 4.33 5.99 0.24 6.72-0.84-0.03-1.94-0.95-2.73-0.37-2.92 3.12 7 15.73 7.8 20.08q0.07 0.05 0.13 0.08-0.05 0.04-0.1 0.08c0.21 1.22-0.7 1-3.7-1.92-0.74 9.17-6.85 17.66-16.55 15.89 2.18 3.11 0.07 7.95-3.82 8.34 3.64 4.05-1.1 10.31-6.04 7.86 1.61 7.86-10.04 10.15-11.51 2.25-3.33 4.15-8.81 2.32-8.36-1.46-1.52 1.13-3.79 3-3.83 1.48 1.74-6.06-6.29-7.42-8.99-16.17-1.99 1.15-3.53 2.94-4.4 5.03 0.31-0.22 0.69-0.05 0.81 0.29 0.67 1.68-0.33 3.63-2.01 4.22-1.18 0.2-0.48-2.08-0.44-2.73-4.12 1.9-8.39 5.17-7.14 10.07 0.7 2.34 3.33 3.22 4.24 5.42 2.07 5.94-6.77 4.31-10.64 3.27q0.25 1.64 0.5 3.29c-1.14 2.65-1.43-3.11-1.63-3.87-0.06-0.36 0.22-0.78 0.64-0.64 2.21 0.72 11.99 3.09 10.18-1.64-1.79-2.73-5.49-4.67-4.45-8.55 0.72-4.52 4.74-6.86 8.62-8.57 0.9-2.81 2.88-5.27 5.53-6.67-1.91-1.74-2.66-4.23-3.71-6.48-0.2-0.34-0.64-0.54-0.82-0.09q-0.03 0.03-0.03 0.04-0.02-0.01-0.06-0.02 0.03 0.01 0.06 0.02c-0.01 0.03 0.03 0.03 0 0 0.54 0.28 0.27 1.21-0.33 0.98-1.55-0.6-0.19-2.83 1.21-2.22 2.34 1.99 2.2 6.07 5.28 7.62 2.09 1.41 5.87 0.67 6.31-2.09 0.04-0.38 0.41-0.66 0.78-0.45 2.73 1.89 8.05 2.87 9.13-1.29q0 0 0.01 0.01c0.23-0.55 0.65-0.68 0.99 0.27q-0.08 0.3-0.18 0.58c-0.06 0.83 0.75 1.6 1.5 1.87 3.95 0.73 5.59-4.72 9.43-4.86 0.67-0.05 0.67 0.98 0 1.04-3.99 0.61-7.61 8.49-11.66 3.27-2.02 2.51-6.34 2.02-9.15 0.38-0.98 2.96-4.81 3.66-7.49 2.31 1.12 3.02 2.87 5.79 5.13 8.1 2.36 1.8 4.38 4.26 4.07 7.23 1.47-1 2.4-1.59 2.97-1.89q0 0 0 0 0 0 0 0c2.39-1.24-1.56 2.86 2.76 4.25 2.14 0.47 4.07-1.47 5.09-3.1 0.25-0.4 1.02-0.27 0.97 0.26-0.3 3.23 3.1 6.31 6.32 5.3 2.72-0.86 4.26-4.4 2.98-6.95-0.26-0.53 0.38-1.03 0.82-0.63 4.52 3.69 9.69-3.23 4.84-6.47-0.53-0.33-0.16-1.04 0.4-0.95 4.44 0.81 6.89-5.32 3.12-7.77-0.47-0.32-0.19-1.15 0.4-0.95 10.79 3.22 16.79-6.1 17.2-15.73 0.4-0.78 1.57 0.2 2.69 1.27-2.29-4.58-4.63-9.14-6.87-13.74-1.35-2.32-0.54-7.14 3.01-5.41 1.55 0.83 2.57-1.2 1.92-2.45-0.29-1.38-2.77-1.94-2.63-3.13 1.11-2.41 4.96-2.21 6.13-0.01 5.82-2.17 4.01-0.83 4.41 4.64 2.13-2.24 6.39-2.06 8.22 0.45 0.34-1.24 0.67-2.89 1.64-2.42 2.51 2.08 6.97 0.87 8.08-2.18 0.11-0.31 0.45-0.49 0.76-0.31 5.57 2.35 7.85-5.1 7.4-9.35 2.47-3.65 1.29 13.71-7.39 10.46zm-90.37 47.97q-0.24 0.89-0.32 1.81c0.53-0.49 0.8-1.24 0.71-1.96q-0.19 0.07-0.39 0.15z"/>
		<path id="&lt;Path&gt;" class="s0" d="m745.88 725.5c0 3.26-8.87 7.83-7.95 9.64 1.46 0.96 2.31 2.64 2.27 4.38-0.02 0.67 1.02 0.67 1.04 0 0.05-1.9-0.81-3.7-2.27-4.89 2.77-2.8 6.79-4.95 7.92-8.85 0.11-0.65-0.89-0.93-1.01-0.28z"/>
		<path id="&lt;Path&gt;" class="s0" d="m400.72 439.96c0.73 0.53 11.96 6.32 9.74 3.21-3.99-1.35-8.04-3.05-11.42-5.57-0.45-0.73 0.79-1.84 1.3-2.25 2.02-1.58 5.17-2.32 5.96-5.05 0.33-1.24-0.01-2.73-1.03-3.49 4.33-3.04 8.57 0.92 5.54 3.63q0 0 0 0 0 0 0 0c-0.6 0.31-0.08 1.17 0.52 0.89 1.28-0.6 2.35-1.49 3.2-2.61 0.4-0.53-0.5-1.05-0.9-0.53q-0.37 0.48-0.82 0.89c0.72-3.34-4.22-6.53-8.88-2.54-0.32 0.24-0.11 0.77 0.23 0.86 1.54 0.43 1.43 2.52 0.67 3.56-2.45 2.86-11.51 5.39-4.11 9z"/>
		<path id="&lt;Compound Path&gt;" fill-rule="evenodd" class="s0" d="m417.99 427.07c1.06 0.48 1.71 1.5 1.68 2.66 0.59 1.5 5.73-0.96 7.09 0.1 0.1 4.58 4.53 5.31 7.52 2.48-0.09 0.35 0.18 0.78 0.62 0.63 2.51-0.83 4.85-2.08 6.94-3.68 0.34 4.03 6.13 5.13 7.89 1.4 1.33 1.28 3.93 1.14 4.81-0.62 6.54 14.25 15.71 26.99 23.62 40.46 3.19 6.42 2.72 13.42 1.43 20.27-6.12-3.8-13.24-8.75-16.74-16.2-0.27-0.61-1.17-0.08-0.9 0.52 3.98 7.83 10.36 12.5 17.44 16.71-0.49 2.47-1.06 4.91-1.59 7.3-1.68 6.14-1.85 12.28-1.38 18.43-0.75 3.06-1.14 6.38-1.03 10.08-0.14 1.37 2.61 12.39 2.61 12.39 0 0-2.62 32.72-1.02 50.58-1.79-2.96-3.98-5.62-7.02-7.67-9.2-7.24-19.67-29.11-19.86-28.82-7.18-7.37-10.8-12.5-12.73-16.97q0.07-0.13 0.15-0.31c-0.24-0.51-0.61-4.7-1.2-6.35-0.16-5.72-0.54-11.47-0.82-17.2 13.03-13.31 11.54-19.83 12.65-37.49q0.97-15.81 1.93-31.63c0.04-0.66-1-0.66-1.04 0q-1.34 22.09-2.7 44.17c0.07 3.14-0.41 5.94-1.26 8.54-6.73-17.3-8.04-36.63-3.65-54.66 0.16-0.65-0.85-0.93-1.01-0.28-4.46 18.56-3.18 38.67 4.15 56.32-1.99 5.06-5.43 9.39-9.13 14.03-0.94-15.78-1.85-31.6-3.98-47.27-0.09-0.66-1.09-0.38-1 0.27q0.1 0.8 0.2 1.59c-1.86-3.57-6.48-20.65-7.46-16.44 1.35 1.02 6.12 18.98 7.61 17.63 2.46 20.03 3.42 40.24 4.39 60.37-0.62-5.48-0.55-11.66-3.58-21.79-4.25-9.33-12.04-16.47-16.66-25.6-3.76-7.35-5.88-15.38-7.92-23.34 0.45-0.62 1.32-1.5 3.49-2.74 0.74-0.75 13.2-6.14 9.35-6.24-3.62 2.47-10.43 4.43-13.16 7.88-0.3-0.4-1.07-0.12-0.92 0.46q0.07 0.27 0.14 0.54c-1.58 1.13-5.42 0.21-7.4 0.53-0.4 0.01-0.63 0.43-0.45 0.78 2.11 5.7-5.98 3.42-3.63 8.21 0.31 0.69 1.09 2.15-0.04 2.54-3.65 0.6-5.68-6.86-9.4-1.81-4.18 4.17-3.41 17.22-1.58 13.55-1.16-4.54-0.31-11.88 4.19-14.22 2.02 0.18 2.86 2.49 4.66 3.2 2.18 1.18 4.65-0.43 3.46-2.89-2.92-4.33 5.07-1.95 3.47-8.32 5.12 0 6.47 0.01 7.03-0.35 2.63 10.31 5.66 20.73 11.89 29.51 5.74 8.29 13.29 16.05 14.78 26.41 0.06 12.83 1.82 20.96 7.17 29.07q-1.88-1.86-3.75-3.76c-0.16-0.16-0.35-0.18-0.52-0.11q-0.16-0.14-0.33-0.27c-0.06-0.49-0.58-0.89-1.14-0.86q-0.06-0.04-0.13-0.09c-1.43-2.41-7.06-7.68-7.88-8.26-3.25-2.73-7.63-4.54-9.31-8.7-2.54-8.85-1.37-18.41-3.73-27.37-0.38-1.52-4.05-19.54-5.31-15.74 3.46 10.15 5.62 20.73 6.37 31.42 0.13 6.7 0.56 14.56 7.21 18.18 3.77 2.52 11.2 10.72 11.78 11.12 0.42 0.69 0.88 1.44 1.58 1.17 10.87 9.04 13.07 24.31 20.27 35.96 4.75 8.08 12.47 14.37 15.77 23.24 0.57 1.54 0.93 3.15 1.24 4.76q-1.96 1.34-3.82 2.83c-12.56 4.82-27.11 2.74-40.46 3.96-3.39-2.32-7.72-3.3-10.52-6.41-1.17-3.2-2.37-5.88-3.61-8.17 0.68 0.35 1.17-0.71 0.43-0.96q-0.58-0.16-1.16-0.33c-6.91-11.73-15.23-12.67-26.69-24.57-6.9-7.65-4.92-12.47-5.6-21.39-2.62-7.4-9.58-12.31-13.23-19.23-3.61-5.74-6.6-11.87-8.87-18.25-0.23-0.63-1.23-0.36-1.01 0.27 3.64 10.19 9.03 19.72 15.91 28.1 2.4 2.94 5.33 5.77 6.24 9.58 0.48 6.31-0.91 13.05 3.41 18.47 9.16 12.29 20.9 15.27 28.45 26.63-10.24-2.93-20.56-6.08-29.85-11.31-1.09-1.7-2.38-3.25-4.15-4.41q-0.25-0.15-0.47-0.14c-6.36-10.85-12.17-22.28-21.95-30.5-0.95-0.48-10.67-11.4-9.55-7.66 5.04 4.94 10.4 9.57 15.22 14.72 6.15 7.17 10.42 15.68 15.23 23.77-0.11 0.26 0.18 0.52 0.32 0.73q0.01 0.07 0.04 0.14c-6.34-4.57-11.34-3.48-18.63-3.55 0.75-2.91-15.26-26.84-15.73-22.03 6.55 6.08 11.66 13.67 14.76 22.03-9.02-0.03-18.11-0.62-26.12-5.06-0.59-0.32-1.11 0.57-0.53 0.9 12.77 7.79 28.17 3.15 41.82 6.35q3.12 2.1 6.37 3.95 1.22 1.7 2.44 3.41c1.51 3.08 2.67 6.42 5.05 8.96q1.83 2 3.88 3.78c1.85 2.59-2.71 5.42-6.89 4.48-3.46-0.05-6.99 0.73-10.01-1.48-5.02-2.7-10.35-4.82-15.85-6.32 5.45-4.4 9.97-9.66 12.31-16.59 0.21-0.64-0.8-0.91-1-0.28-2.24 6.91-7 12.17-12.59 16.53-7.84-1.99-15.99-2.74-24.07-2.12-0.66 0.05-0.67 1.09 0 1.04 7.77-0.68 15.49 0.07 22.97 1.92-3.49 2.6-7.24 4.88-10.88 7.02-0.7 0.76-13.24 6.71-9.37 6.68 6.99-4.22 14.89-8.21 21.57-13.36 6.65 1.77 13.1 4.41 19.17 7.68 1.67 0.6 3.28 0.49 5.02 0.33 5.66-0.42 10.9 2.17 16.21 3.73q0.42 0.58 0.83 1.17c0.46 0.59 7.12 1.42 10.27 2.45 0.09 0.21 0.42 0.32 0.64 0.21q8.59 2.8 17.17 5.6 1.09 0.7 2.22 1.41c-7.5 3.69-14.93 8.09-23.45 7.52-1.08-0.08-1.44 1.53-0.65 2.02-3.29 0.78-5.52 4.06-8.32 5.88-4.37 3.38-9.01 6.41-13.76 9.24-0.89 1.16-20.53 10.25-15.79 9.96 11.96-6.4 24.05-12.89 34.36-21.79 1.9-2.12 4.58-2.81 7.34-2.27 6.37 0.86 11.14-1.72 15.43-4.38 3.05-1.26 6.06-2.7 9.02-4.1q1.16 0.37 2.22 0.3 1.17 0.85 2.25 1.83c1.96 0.84 9.79 9.01 9.98 8.97 1.75 2.2 3.11 4.7 5.3 6.51q4.58 5.53 9.41 10.83c0.21 1.2 1.68 1.91 2.51 2.72 0.92 0.91 1.95 1.69 3.03 2.41 4.41 3.15 8.45 6.77 13.01 9.73q-3.16 1.2-6.26 2.56c-4.65 0.34-9.38 0.82-13.99-0.07-1.37 0.12-14.13-3.26-16.04-2-4.26-1.25-7.87-2.25-11.25-2.83-3.18-0.95-6.48-1.09-9.71-0.37-14.43-1.85-15.55-11.81-25.01-14.58-0.66-0.11-0.94 0.89-0.28 1 8.2 2.32 10.78 11.87 22.34 14.06-4.29 0.89-9.07 2.68-15.15 5.7-5.34 1.82-10.81 3.27-16.27 4.71-0.58 0.15-0.71 0.68-0.53 1.1q-0.94 0.32-1.87 0.67c-4.59-3.08-9.74-5.33-15.14-6.57-1.71-0.34-3.78-0.44-4.51-2.32-1.31-3.14-4.25-4.98-6.95-6.84-6.17-4.5-10.29-12.9-18.71-13.43-0.67-0.04-0.67 1 0 1.03 7.86 0.59 11.78 8.44 17.48 12.77 1.97 1.5 4.21 2.7 5.83 4.61 1.07 1.19 1.4 2.9 2.64 3.96 6.16 2.03 12.77 3.45 18.24 7.22-4.09 1.6-8.05 3.53-11.94 5.64-0.34-0.22-0.78 0-0.81 0.45-8.05 4.47-15.82 9.48-23.78 14.07-0.58 0.34-0.06 1.24 0.52 0.9 7.73-4.34 15.19-9.25 22.93-13.63-2.71 10.43-8.16 20.14-15.73 27.85-0.47 0.48 0.27 1.22 0.74 0.74 7.91-8.09 13.59-18.31 16.23-29.29 4.1-2.27 8.29-4.37 12.63-6.15q0.19 0.14 0.38 0.28c0.48 0.33 0.93-0.3 0.69-0.72 3.57-1.35 7.46-1.53 11.14-2.48 3.18-0.46 6.34-0.96 9.36-2.06 2.28-0.84 4.41-2.03 6.52-3.25 6.45-2.46 12.78-4.12 20.21-1.22 2.24 0.63 4.48 1.31 6.73 1.98-9.23 4.05-25.66 9.58-24.69 20.21-1 1.95-1.55 3.52-0.15 2.75q0.42-0.92 0.83-1.77c0.68 0 0.55-0.97 0.73-1.45 1.71-3.35 3.3-5.86 4.94-7.84 7.69-6.78 22.02-9.21 31.12-8.9 3.14 0.51 6.14 1.97 9.23 2.53q0.54 0.08 0.94-0.16c8.18 1.69 13.82 1.47 18.13 0.25q2.23-0.39 4.43-1.02c0.77-0.23 1.3-0.9 1.51-1.66q0.17-0.1 0.33-0.21c2.49 0.4 11.5-7.47 13.68-9.44q0.77-0.32 1.6-0.6c0.99 0.44 2.41 0.12 3.03-0.8q2.14-0.43 4.73-0.55c2.18 0.52 4.52 0.77 6.44 0.4q0 0.02 0.01 0.04c-0.55 0.54-0.8 1.34-0.45 2.32q0.65 1.85 1.16 3.72c0.02 3.45-0.28 6.92 0.84 10.25 0.69 2.25 1.51 4.62 1.6 6.97-1.8 4.17-3.76 8.28-5.2 12.6-2.18 3.55-4.83 6.9-8.29 9.24-4.22 0.42-8.38 2.34-12.7 2.69-15.32-1.14-30.48-4.71-45.22-8.98-0.64-0.2-0.92 0.8-0.28 1 13.56 3.17 27.92 8.45 42.02 8.59q-7.14 1.38-14.02 3.75c-12.23 3.25-25.11 4.76-37.59 2.02-0.71 0.04-6.38-1.23-8.59-1.83-0.15-0.24-0.5-0.38-0.79-0.19-3.83-0.88-7.7-1.45-11.7-1.27-15.09 1.02-30.16 2.94-45.33 2.56-1.44 0.06-5.87-0.5-3.85 0.99 15.22 0.42 30.41-0.82 45.53-2.34 4.41-0.55 8.67-0.16 12.88 0.66q0.6 0.25 1.21 0.49c-4.3 3.64-9.47 7.06-11.5 12.37-0.35 13.81-4.68 27.64-14.73 37.58-0.47 0.48 0.27 1.22 0.74 0.74 7.86-8.12 13.09-18.78 14.35-30.01 0.59-3.82-0.48-8.29 2.46-11.34 2.94-3.27 6.32-6.15 9.73-8.93 5.33 2.03 10.86 3.32 16.46 3.97 2.71 0.63 5.45 1.14 8.23 1.37 3.98 0.35 7.75-0.39 11.43-1.56q4.89-0.62 9.7-1.73c8.33-2.35 20.4-3.11 30.33-5.88-9.41 10.39-19.49 20.2-29.67 29.85-1.66 0.94-3.26 2.14-4.69 3.84q-1.36 0.89-2.93 1.49c-0.54 0.2-0.58 0.81-0.29 1.13-9.18 5.86-22.3 4.69-30.33 12.57-0.1-0.2-0.31-0.33-0.58-0.25-8.78 2.5-17.19 6.28-24.87 11.2-0.69 0.6-8.89 5.29-5.75 5.29 9.02-6.89 19.32-12.12 30.23-15.3-4.2 4.28-7.3 9.83-10.47 14.88-0.4 1.29-10.93 15.46-7.19 13.29 14.67-22.36 14.79-31.8 42.64-37.82-7.41 11.39-14.87 24-24.79 33.02 0.01-0.56-0.88-0.76-1.02-0.15-0.85 8.8 26.09-28.7 26.61-33.04 2.89-0.93 5.78-2.3 8.08-4.3 2.71-1.31 6.22-3.69 10.14-6.77 4.12-1.22 8.8-4.31 10.73-9.21 6.72-6.17 13.64-13.24 19.37-19.8q1.81-1.41 3.58-2.86 0.07-0.01 0.14-0.02c0.26 0.16 0.58 0 0.79-0.22 0.24-0.06 0.49-0.21 0.51-0.45q1.78-1.59 3.26-3.46c0.46-0.2 0.86-0.61 1.12-1.09q2.42-2.04 4.36-4.63c0.86-1.14 0.36-2.25-0.56-2.88 0.83-2.23 3.44-9.17 2.53-11.18 0.39-1.36 1.74-3.11 0.72-4.4q0.01-1.39-0.35-2.86c0.92 0.24 1.94 0.09 2.74-0.64 3.42-3.16 6.53-6.63 9.3-10.36q0.48-0.42 0.98-0.81c2.28-0.2 4.34-0.98 6.08-2.27q1.34-0.41 2.7-0.75c2.78 1.8 6.11 4.6 9.11 5.63q0.46 0.28 0.92 0.56c0.54 3.05 7.08 16.6 7.74 16.69 0.51 4.04 0.75 8.11 1.09 12.16-1.65 4.2-3.95 7.81-6.87 11.1-0.28 0.69-5.25 6-7.11 8.77-2.8 3.08-5.68 6.1-8.78 8.9q-1.4 1.29-2.88 2.49c-21.61 11.31-42.73 25.67-67.91 23-0.84 0.09-1.48 1.37-0.49 1.81q0.68 0.16 1.36 0.3c6.36 19.48-10.68 43.46-17.38 61.66-0.27 0.61 0.63 1.13 0.9 0.52 6.93-19.25 23.61-40.95 17.6-61.97 3.52 0.64 7 0.88 10.44 0.77 3.25 0.33 6.1 0.48 8.71 0.41-0.24 0.64 0.26 1.53 1.14 1.32 2.36 0.01 21.64-7.13 22.27-10.9 7.28-3.6 14.49-7.69 21.57-11.65q0.58-0.14 1.16-0.27c1.08 0.67 1.97-0.16 3.19-0.74 5.77-1.09 7.35-4.61 12.03-6.95 1.67-0.68 3.46-1.4 5.19-2.24q1.44-0.29 2.95-0.84c-4.8 6.8-9.39 13.84-13.48 21.12-20.05 26.04-41.29 50.94-62.89 75.69 10.98-10.38 22.36-23.44 33.6-37.2-2.77 5.99-3.94 12.8-5.1 19.24q-2.35 13.03-4.69 26.05c-0.12 0.65 0.89 0.93 1 0.28 4.01-16.72 3.88-40.6 15.23-53.55 6.92-8.65 13.74-17.43 20.33-25.87-6.28 12.02-12.37 39.01-11.88 38.91 0 0.13 1.95 21.81 8.1 44.8q-0.2 0.07-0.26 0.33c-2.11 4.64-8.7-1.07-12.58 2.35-1.29 0.69-2.57 1.55-4.08 1.61-1.24 0.06-2.75-0.33-3.09-1.68-0.55-1.6-3.87 3.69-6.55 3-1.62-0.09-3.66-2.01-2.58-3.65 0.72-1.59-6.72-0.47-7.91-0.82-5.12 0.09 0.11-4.17-6.36-6.77-0.77-0.14-7.62-3.98-11.81-5.84 0.23-0.39 0.23-0.83-0.1-1.23-0.55-0.15-0.63 0.51-0.91 0.8-1.77-0.71-2.76-0.86-1.99 0.19q0.3 0.2 0.71 0.43c-3.02 0.39-4.16-2.95-4.67-5.3-0.16-0.65-1.17-0.37-1 0.27 0.98 6.06 4.95 6.63 6.95 5.68 5.09 2.46 15.75 6.45 15.55 9.27-0.54 5.29 6.56 3.27 10.31 3.49-0.59 1.93 1.24 4 3.13 4.43 2.55 0.57 4.84-1.29 6.6-2.97 2.75 4.54 8.26-1.05 12.07-1.12 2.87 0.38 7.34 2.02 8.99-1.09 0.25 0.53 0.54 0.6 0.9-0.3-10.9-38.72-8.62-60.18 8.91-86.56 0.35-0.02 8.68-9.14 13.61-16.46 1.89 12.49 6.64 23.14 13.37 35.75 1.18 2.98 2.05 6.04 1.96 9.33-1.27 11.57 4.25 20.18 10.26 29.48 0.33 0.58 1.23 0.06 0.9-0.52-11.92-18.49-8.74-15.77-10.82-34.04q0.27 0.5 0.55 1c-0.24 0.17-0.37 0.53-0.14 0.83 3.7 3.9 7.65 7.58 11.54 11.31-0.28 4.03-0.55 8.04 0.88 11.93q0.09 1.08 0.2 2.16c0.09 0.9 1.5 0.93 1.44 0q-0.02-0.33-0.04-0.66 0.04-0.15-0.02-0.33-0.36-5.6-0.45-11.17c6.02 5.83 11.78 11.89 16.15 19.16 4.81 1.68-14.74-20.22-16.16-20.82q-0.03-2.85 0-5.69c0.41-2.27 0.81-4.52 1.04-6.74 0.55-3.63 0.17-7.2-0.44-10.75-0.03-0.89 0.46-2.35-0.52-2.82-0.81-6.39-1.03-12.87-0.61-19.28 1.97-9.22 6.07-18.48 4.43-27.7 7.28 12.31 9.08 26.41 11.05 40.35-0.21 2.89-0.93 6.3-0.28 9.08 0.89 4.03 3.62 7.66 6.03 11.13 0.95 1.85 1.91 3.8 3.23 5.47q0.8 1.74 1.16 3.62c0.12 0.66 1.13 0.38 1-0.27q-0.34-1.8-1.05-3.43c0.23-0.21 0.32-0.53 0.07-0.87-7.26-9.89-7.02-22.56-8.72-34.17-1.59-11.16-5.08-21.99-9.79-32.22 3.11 1.88 6.51 3.11 9.92 4.34 3.75 1.63 7.46 3.3 10.83 5.59q3.74 4.75 7.49 9.47 0.16 0.32 0.4 0.51 2.92 3.66 5.92 7.25c0.45 0.54 1 0.64 1.49 0.48 5.98 4.66 14.48 4.57 18.84 10.18 0.56 0.84 1.12 1.7 1.39 2.68 2.71 6.95 6.46 13.47 11.09 19.33q0.87 1.1 1.78 2.16c0.44 0.51 1.17-0.23 0.74-0.73q-0.45-0.53-0.89-1.06c0.36-0.05 0.57-0.47 0.57-1.39-2.81-3.7-5.45-7.48-7.52-11.65-2.18-5.21-3.7-9.65-6.88-12.89q-0.26-0.61-0.56-1.18c9.92 2.03 20.01 3.49 29.92 5.37 2.29 2.71 4.45 5.56 6.32 8.57-0.72 1.26-1.53 2.06-2.41 1.76-0.42-0.35-0.95-0.01-0.87 0.51 0.47 1.6 0.1 4.91-2.27 4.14-0.59-0.33-1.11 0.57-0.52 0.89 2.85 1.22 4.25-1.9 3.99-4.36 1.25 0.07 2.44-1.34 2.96-2.42 0.18-0.85 5.03-9.53 2.32-7.83-0.7 1.01-1.58 4-2.66 6.28q-2.62-4.04-5.6-7.76 1.11 0.43 2.2 0.93c1.29-0.68 0.02-1.47-2.59-2.28-0.24-0.2-0.63-0.21-0.93-0.28-16.38-19.74-39.39-33.37-56.06-53.01-1.03-0.77-6.79-8.81-8.47-10.07q-3.41-4.16-7.53-7.65c13.82 6.29 29.78 9.92 44.56 12.06 1.12 1.81 2.17 3.21 3.1 4.01 0.86 1.63 1.6 3.37 2.33 5.11 1.51 2.8 5.07 8.64 5.22 8.64 7.32 12.35 16.29 24.16 29.46 32.87 0.25 0.22 0.55 0.15 0.74-0.02 1.51 1.23 2.81 2.14 3.73 2.53q1.15 0.93 2.35 1.85c0.45 0.49 1.19-0.24 0.74-0.73q-0.82-0.87-1.66-1.71 0-0.29-0.09-0.71c-6.39-7.38-14.26-13.53-21.12-20.51 0.09-0.14-17.39-29.17-18.48-31.61 2.49 0.17 5.04-0.04 7.51 0.21 4.23 1.24 14.05 3.72 14.18 3.04 5 0.99 10.08-0.54 15.06-1.08 1.29 2.22 1.51 4.85 2.2 7.46-0.22 0.13-0.21 0.34 0.14 0.65 1.9 9.15 4.75 19.91 15.37 21.27 0.67 0.06 0.67-0.98 0-1.04-10.67-1.75-12.01-11.26-14.08-20.03 11.69 0.53 23.27 3.27 33.94 8.06 0.61 0.27 1.14-0.62 0.53-0.9-11.37-4.98-22.02-7.61-34.73-8.22-0.65-2.63-1.4-5.16-2.53-7.35 11.01-1.42 22.11-2.14 33.23-1.66 0.67 0.02 0.67-1.02 0-1.04-11.31-0.59-22.56 0.38-33.77 1.74q-0.27-0.45-0.57-0.88c-2.12-1.95-5.07-2.47-7.67-3.5-8.2-3.64-13.38-11.5-20.21-17.03-2.56-2.33-5.15-4.65-7.7-7q1.15-0.55 2.3-1.11c6.7 2.56 13.43 5.05 20.35 6.86 15.65 1.23 31.1-4.56 46.57-6.49 0.66-0.12 0.38-1.12-0.27-1-17.47 1.71-36.64 10.91-53.66 4.24q-5.83-2.1-11.63-4.26 3.13-1.51 6.27-3.03c5.29-1.62 16.56-5.28 13.85-6.68q0.83-0.4 1.67-0.81c0.6-0.29 0.08-1.18-0.52-0.89q-4.39 1.87-8.7 3.99c-5.87 1.66-11.69 3.25-17.3 5.67q-2.14-0.79-4.27-1.57c-0.35-0.35-0.9-1.09-1.34-0.5q-4.37-1.6-8.76-3.16c-2.06-0.72-4.38-0.78-6.15-1.9-1.01-1.12-2.01-2.31-3.1-3.32-7.43-7.72-18.6-13.14-29.42-14.82-2.17-1.29-5-1.33-7.89-1.31-0.4-0.16-0.86-0.14-1.14 0.04q-0.1 0.01-0.21 0.01c-0.1-0.49-15.48 0.6-22.71 0.96-3.37 0.46-6.82 0.42-10.18 0.81q-1.66 0.09-3.31 0.17c1.91-2.24 4.23-4.09 6.81-5.49 7.98-1.92 19.5-4.98 30.12-8.2 5.88-1.03 11.8-2.2 17.35-4.07 0.82 0.3 1.68-0.56 2.42-0.87q1.76-0.67 3.47-1.47 0.53 0.19 1.22 0.36 1.64-0.72 3.31-1.38 0.28 0.3 0.76 0.41 4.56 0.76 9.15 1.36c10.19 2.75 20.59 4 31.06 4.25 6.18 0.63 12.53 0.92 13.75-0.21q3.35-0.17 6.69-0.44c-0.15 0.16-0.07 0.41 0.34 0.78 22.78 0.97 29.52 20.61 52.71 18.54 0.66-0.05 0.67-1.09 0-1.04-22.39 2-29.42-16.8-51.12-18.44 6.12-0.55 12.24-1.31 18.3-2.2 9.66 1.32 20.01 2.53 28.55-3.3 0.57-0.35 0.05-1.24-0.52-0.89-10.37 6.93-20.09 3.28-31.3 3.21-7.78 1.48-15.67 2.48-23.58 2.91q-0.18-0.31-0.64-0.69c-16 0.05-31.7-4.5-47.56-6.62 5.98-1.94 12.1-3.46 18.22-4.88 1.95-0.69 25.06-5.28 28.21-7.74 7.59-2.15 14.77-6.2 21.66-10.2 9.78 2 19.52 4.25 29.22 5.51 0.65 0.12 0.93-0.88 0.27-1-8.64-0.87-18.37-3.13-28.22-5.28 9.11-5.56 18.03-11.65 28.81-12.99 0.65-0.08 0.66-1.11 0-1.04-11.29 1.85-20.91 7.85-30.65 13.63-4.03-0.86-8.07-1.69-12.07-2.39 9.24-10.56 11.57-15.12 26.47-19.53 7.37-2.29 11.49-9.4 18.26-12.62 0.62-0.26 0.09-1.15-0.52-0.89-4.96 2.15-8.21 6.69-12.58 9.7-4.43 3.01-9.75 4.17-14.61 6.25-7.96 3.17-12.53 10.87-18.18 16.9-11.9-1.99-23.28-2.64-32.43 0.79 5.99-6.26 12.63-13.44 12.2-14.9 9.46-12.92 10.6-8 23.83-8.13 12.35-2.27 18.62-15.15 26.99-23.27 0.44-0.5-0.29-1.23-0.74-0.73-7.83 7.7-13.78 19.21-24.74 22.7-5.31 1.27-10.67-1.41-15.98-0.28-4.98 1.12-7.36 6.11-10.56 9.59q-0.09 0.02-0.18 0.06c-12.61 12.02-23.55 25.96-37.04 36.98q-1.8 0.73-3.65 1.25-0.53-0.27-1.49-0.47-1.46 0.7-2.94 1.35c-10.94 1.85-22.19 0.09-33.02 0.31 0.84-5.16 2.9-9.9 4.36-14.89 0.34 0 6.7-17.93 10.67-23.77 2.01-1.78 4.05-3.53 5.68-5.68q1.38-2.73 3.11-5.04c1.7-1.85 3.54-3.8 5.54-5.95 6.58-5.76 14.85-9.57 22.79-13.78 8.63 0.32 17.32-3.52 26.16-3.14 10.15-3.56 19.58-12.12 31.19-9.27 0.65 0.15 0.93-0.85 0.27-1-10.79-2.44-20.48 3.9-29.56 8.7-2.04 0.78-4.14 0.68-6.29 0.73-6.8 0.22-13.35 2.74-20.14 3.1 6.79-3.68 13.23-7.8 18.04-13.86 9.29 0.39 19.44-0.65 27.71-5.41 2.25-1.2 4.65-2.37 7.27-2.07 0.66 0.08 0.66-0.95 0-1.03-4.73-0.46-8.48 3.03-12.68 4.56-6.88 2.65-14.35 2.89-21.64 3.08 2.12-2.95 3.69-6.28 5.6-9.38 7.52-3.3 15-7.42 19.37-14.68 0.34-0.57-0.56-1.09-0.9-0.52-3.94 6.56-10.6 10.44-17.41 13.57 1.4-2.05 3.04-3.98 5.06-5.44 0.54-0.39 0.02-1.29-0.52-0.9-2.63 1.9-4.56 4.42-6.25 7.12q-9.21 3.55-17.69 8.49c4.81-13.04 14.75-23.54 24.64-33.05-1.14-3.71-21.39 22.14-22.45 25.65-0.36 0.63-3.24 6.17-3.5 8.15-2.7 1.54-5.4 3.1-8.14 4.58-6.95 2.95-14.84 2.02-21.94 4.4-0.08-0.64-0.77-1.22-1.51-0.81-15.87 8.67-31.41 17.92-47.26 26.61-2.2 1.26-4.57 2.69-6.49 4.49q-0.02-0.22-0.04-0.44c6.21-16.7 12.85-33.28 19.02-50.01 10.15-5.27 21.97-5.35 32.71-8.92 6.46-1.82 11.43-7.07 18.11-8.2 0.08 0.69 1.12 0.48 1.02-0.17 4.92-0.78 9.99-0.56 14.9-1.56 6.85-1.16 13.52-3.24 19.82-6.16 0.61-0.28 0.08-1.17-0.52-0.89-8.5 3.92-17.71 6.29-27.05 6.94-2.42 0.06-4.84 0.24-7.21 0.64 0.09-1.99 1.27-3.87 1.82-5.77 2.96-7.21 4.55-16.09 11.49-20.66 0.57-0.36 0.05-1.25-0.52-0.9-7.04 4.61-8.92 13.44-11.8 20.81-0.65 2.21-2.01 4.39-2.03 6.72-3.22 0.65-6.3 1.78-9.08 3.7-12.27 8.35-28.17 6.59-41.17 13.1 4.21-11.48 8.2-23.04 11.65-34.76 2.14-4.01 6.2-6.52 9.76-9.16q13.52-10.04 27.04-20.09c0.53-0.39 0.01-1.29-0.53-0.89-11.58 9.04-24.12 17.01-35.14 26.7-2.9 3.3-3.86 7.55-4.84 11.7q-1.99 6.84-4.3 13.58c-0.28-0.52-1.22-0.59-1.46 0.15-6.92 21.41-11.57 31.56-21.64 54.33 1.45-7.35 4.29-13.8 6.17-19.78 2.06-4.88 3.88-10.28 4.01-17.98 0.27-3.34 0.26-6.93-0.11-10.91-0.1-4.77 0.51-9.41 1.51-13.97 2.91-7.08 5.28-14.38 7.05-21.83 0.75-3.49 2.25-6.8 3.11-10.26q0.12-0.41-0.07-0.67c1.87-3.73 4.81-6.52 10.23-9.4 4.02-2.67 7.41-6.21 9.91-10.33 0.35-0.57-0.55-1.09-0.9-0.52-6.82 11.73-16.62 11.06-20.18 19.9-0.36 0.06-0.65 0.41-0.74 0.79 0.6-8.67 1.71-17.31 3.36-25.85 0.12-0.66-0.88-0.93-1.01-0.28-1.73 9.04-2.9 18.19-3.48 27.37-0.03 0.34 0.23 0.5 0.49 0.5-3.53 9.45-7.78 18.82-10.25 28.58-0.16-9.64-0.84-19.21-5.29-27.97-4.09-8.65-6.82-17.93-7.88-27.4q1.77-3.01 3.31-6.14c0.3-0.6-0.6-1.12-0.9-0.52q-1.22 2.48-2.59 4.89-0.59-6.49-0.09-13.02c0.07-1.78 0.92-5.48-0.7-3.6-1.14 6.82-1.07 12.87-0.29 18.46-6.97 11.7-16.44 21.9-27.65 29.69-2.89-6.42-5.3-13.02-6.41-19.99-0.47-2.21-0.18-6.61-1.55-4.6 1.49 15.44 8.6 29.09 15.61 42.8-8.15 12.17-23.29 20.25-27.9 34.57 0.8-24.29 2.03-49.06 8.29-72.91 2.27-6.86 4.73-13.65 7.19-20.41 0.23-0.63-0.78-0.9-1.01-0.28q-1.05 2.89-2.09 5.79 0.86-2.83 1.74-5.53c-2.86 4.9-6.09 14.82-9 26.97-3.22 10.53-5.82 21.23-7.04 32.2-0.71 4.41-0.8 8.85-0.66 13.29-0.96 9.66-1.36 18.83-0.97 26.5-5.94-9.92-13.29-15.26-20.77-19.67 2.32-4.26 5.07-8.48 5.04-13.42 1.55-5.6 2.43-11.42 2.99-17.21q0.83-2.67 1.75-5.39c5.78-10.86 11-22.04 15.94-33.31 0.15-0.98 6.11-12.23 3.04-9.82q-7.68 18.64-16.78 36.64c4.14-12.34 7.52-24.5 1.66-33.08 5.1 14.7-1.53 28.9-6.07 43.06-0.32-0.05-0.68 0.1-0.75 0.47q-0.1 1.45-0.27 2.84c-1.03 3.74-2.06 7.43-2.37 11.27-1.94 6.21-4.66 11.34-7.46 16.07q-2.86-1.59-5.67-3.2c5.62-21.8-5.16-43.12-4.04-64.94 0.04-0.67-1-0.66-1.04 0-1.17 21.64 9.54 42.77 4.13 64.39q-0.16-0.1-0.33-0.19c4.7-18.93-5.59-26.98-14.29-41.82q-6.15-10.24-11.25-21.03c0.22-0.79 0.57-1.52 1.3-1.25 0.62 0.23 0.9-0.77 0.27-1-1.23-0.34-1.8 0.28-2.19 1.14-0.36-0.2-0.94 0.24-0.7 0.74q0.12 0.28 0.25 0.55c-0.17 0.49-0.34 0.96-0.58 1.3-0.89 0.87-2.82 0.63-3.27-0.59-0.16-0.44-0.89-0.55-1 0-0.85 4.04-6.8 2.98-6.17-1.1 0.1-0.52-0.46-0.85-0.87-0.51-2.15 1.83-4.63 3.23-7.3 4.14 1.5-1.4 2.84-3.05 4.89-3.48 0.61-0.12 0.42-0.97-0.12-1.01 0.64-0.3 1.12-1.12 0.8-1.91-1.15-3.83-4.73-6.05-8.24-7.74 2.37-0.06 4.33-2.6 2.83-4.69 2.69-1.02 5.61-1.64 8-3.18 1.49-1.29 0.73-5.23 3.59-4.48 6.46 2.99 6.84-4.96 11.66-3.81 0.59 0.34 0.97 0.97 1.38 1.49 1.35 1.86 3.39 2.03 4.95 1.66-1.55 3.47 2.52 7.33 5.82 5.03 0.29 1.04 1.37 1.91 2.43 2.25 2.22 0.73 4.37-0.93 6.6-0.6 0.28 0.04 0.48-0.11 0.59-0.3 4.72 1.9 9.58-4.9 4.27-8.7-0.4-0.28-1.13-0.72-1.19-1.26 3.79-0.77 7.32-2.59 10.15-5.2 1.44 2.06 2.24 5.15 4.64 6 3.91-0.08 6.11-4.23 6.94-7.55 0.82-3.14 1.12-6.83 3.57-9.24 2.73-2.74 7.12-2.94 10.35-0.97 1.76 0.89 2.96-1.4 4.63-0.93 1.65 0.44 0.72 2.48 1.87 2.33 2.63-1.01 5.92 0.39 6.87 3.07 0.1 0.27 0.35 0.43 0.64 0.36 3.81-0.76 4.86 4.77 1.02 5.44-0.5 0.08-0.5 0.92 0 1 11.28 2.27-0.34 6.7 3.31 10.81 2.84 2 3.88-1.96 2.03-0.78-1.28 1.12-2.27-1.02-1.51-2.1q5.1-6.66-1.94-8.58c2.98-2.03 1.42-7.38-2.73-6.86-1.23-2.71-4.46-4.3-7.35-3.56-0.23-1.1-1.19-2.03-2.32-2.23-1.64-0.43-2.69 1.65-4.27 1.02-3.77-2.33-9.09-1.58-11.92 1.88-3.68 4.43-1.95 11.83-7.11 15.24-1.46 0.97-2.72 0.84-3.39-0.88-5.35-9.53-1.79-1.52-14.09 0.8-2.25 2.25 4.34 3.31 2.88 7.49-0.79 2.99-4.9 3.46-6.73 1.16-0.42-0.53-1.15 0.21-0.74 0.73q0.4 0.43 0.81 0.74c-1.57 0.05-3.07 0.75-4.65 0.82-1.11 0.03-3.34-1.09-2.53-2.48 0.34-0.58-0.54-1.08-0.9-0.53-3.01 3.68-7.6-1.5-4.04-4.38q0-0.01-0.01-0.02c0.39-0.4 0.27-0.75-0.72-0.71-5.66 3.99-6.22-7.11-12.41-0.7-4.46 6.47-8.79-2.61-10.63 5.85-0.18 2.58-10.74 3.19-8.98 5.22 0.96 0.37 0.69 1.84 0.16 2.45-0.94 1.08-2.78 0.96-4.06 0.91-0.7 0.24-0.58 0.56 0.01 0.98q-0.01 0.03-0.01 0.05 0.04 0 0.09 0.01c2.11 1.43 9.39 4 9.35 8.53-0.06 0.09-0.25 0.2-0.32 0.08-0.31-0.59-1.21-0.07-0.9 0.52 0.25 0.38 0.57 0.54 0.88 0.56-1.39 0.4-2.54 1.34-3.57 2.33-2.09 2.76-7.48 5.29-7.51-0.15-1.4-2.31-4.8-0.61-7.17-0.5-0.14-1.3-0.95-2.48-2.16-3.03-0.61-0.28-1.14 0.62-0.53 0.89zm269.01 316.93c-9.51-2.02-20.09-4.05-29.73-6.53q-0.85-0.35-1.68-0.75c-0.25-0.12-0.5-0.03-0.64 0.13-2.09-0.71-4.94-1.1-7.15-1.81-0.81-0.56-1.8-0.97-2.81-1.28-2.52-1.34-4.54-2.98-6.5-4.87q0.01-0.14 0-0.33c-10.67-14.98-10.88-21.46-29.51-28.24-3.34-1.84-6.42-3.99-9.34-6.35q-0.04-0.23-0.12-0.51c-3.19-3.28-6.68-6.25-10.23-9.16-6.57-6.81-12.75-14.07-19.95-20.16 20.85 5.79 57.66 27.86 57.66 27.86 0 0 42.71 32.11 60 52zm-122.37-35.76c-0.86 1.46-2.02 3.76-3.47 5.13q-0.18 0.09-0.35 0.19c1.03-1.25 1.93-2.56 2.62-3.93q0.6-0.7 1.2-1.39zm69.76-33.83q-2.29-0.7-4.52-1.59c3.21-0.22 9.96-0.36 10.12-2.43q0.64-0.3 1.26-0.63c3.52-0.56 6.91-1.72 10.22-3.14 1.06 3 2.34 5.8 4.49 7.9q0.94 2.12 1.9 4.11c-7.9-0.91-15.73-2.38-23.47-4.22zm-177.19-57.91c8.87 0.68 14.72-0.46 17.6-2 3.12 5.5 7.92 7.99 12.46 10.33 2.75 2.33 6.1 4.68 8.98 6.25q0.27 0.33 0.52 0.68-0.14 0.46 0.02 0.97 1.15 3.3 2.01 6.69-0.01 4.48 0.44 7.55-0.41 3.23-1.4 7.23c-1.98-0.64-18.15-2.91-20.55-5.97-2.66-3.68-9.7-26.43-10.01-22.65q0.97 2.14 1.91 4.31c0.18 1.67 0.66 4.04 1.3 6.62-0.09 0.46 0.44 1.72 0.48 1.89q-0.22 0.56-0.36 1.41 1.22 4.04 3.07 7.77c-4.23-3.8-13.81-10.71-14.32-11.51q-3.63-2.93-7.26-5.86c-4.05-4.51-9.64-7.76-14.24-11.78q0.18-0.19 0.37-0.34 0.28-0.13 0.5-0.33c0.86-0.44 1.84-0.42 3.17-0.23 1 0.15 1.96-0.53 2.16-1.38 4.32 0.44 8.77 0.54 13.15 0.35zm170.69 51.55q-0.5 0.04-0.87 0.26c-14.26-1.98-27.71-8.42-42.03-10.25q-0.43 0.19-0.68 0.39-3.75-1.53-7.04-3.28c-3.71-3.29-8.06-5.79-11.62-9.27q-0.29-0.4-0.56-0.81 1.97-0.59 3.85-1.41c4.37-0.19 8.67-0.67 12.87-1.74q8.42-1.26 16.66-3.39 2.01-0.27 3.87-0.25c2.99 0.78 6.06 1.3 9.14 1.69q1.05 0.33 2.16 0.73 2.49 0.07 4.79 0.36 2.81 0.74 5.62 1.41 0.44 0.04 0.8-0.09c6.16 1.81 11.27 4.99 15.72 9.17 2.67 3.55 5.65 7.31 8.13 9.53q0.45 0.63 0.89 1.28c-7 2.73-14.14 4.97-21.7 5.67zm-83.03-55.55q-0.21 0.41-0.41 0.82 0-0.26-0.01-0.51 0.2-0.22 0.4-0.45 0.01 0.07 0.02 0.14zm-6.63-0.3q-0.09-0.02-0.18-0.05 0.09-0.18 0.18-0.36 0 0.21 0 0.41zm-13.96 48.62q-0.08 0.65-0.14 1.3-0.08-0.62-0.16-1.24 0.15-0.02 0.3-0.06zm61.86-53.51q-0.01-0.31-0.13-0.59 0.34-0.05 0.67-0.27-0.27 0.43-0.54 0.86zm-74.45-88.18c0.67 7.66 1.83 13.46 4.8 16.62 1.18 5.65 2.42 11.3 4.01 16.85-0.86 1 0.33 2.34 0.96 3.26 2.73 10.27 8.51 19.39 11.15 29.72q0.54 3.14 1.15 6.26c0.87 7.68-0.38 15.35-5.38 22.07-0.74 1.45-1.49 3.47-2.38 5.5q-2.1 3.1-4 6.33c-5.24 4.9-10.66-3.15-15.84-4.34-0.63-0.42-1.36-0.5-1.97-0.3-0.7-0.03-1.45 0.04-2.21 0.14q-3.62-1.56-7.17-3.21-1.02-1.68-1.97-3.39 0.06-0.27 0.1-0.57c-3.9-7.97-8.36-15.75-11.04-24.26-0.74-2.98-1.24-5.77-1.57-8.5-0.27-11.92 0.86-23.9 0.3-35.84 0.31-5.81-1.18-11.61-1.94-17.38-0.08-4.35 0.13-7.85 0.94-11.23q0.76-1.51 1.87-2.82 0.23 0 0.38-0.25 4.2-7.86 8.4-15.71c7.99 4.8 15.84 10.67 21.41 21.05zm-12.5 135.02q0 0.13 0.01 0.25-0.16 0.05-0.31 0.1 0.16-0.58 0.31-1.14-0.01 0.39-0.01 0.79zm-31.81-5.25q0.09 0.08 0.17 0.15-0.09-0.04-0.18-0.09 0.01-0.03 0.01-0.06zm183.7 16.57q0 0.01 0 0.01-0.08 0.03-0.16 0.06 0.08-0.03 0.16-0.07zm-201.71-50.29q0.03 0.04 0.07 0.07-2.87-0.16-5.74-0.43-0.02-0.01-0.04-0.03 2.85 0.25 5.71 0.39zm106.47 103.32q0.08-0.07 0.16-0.14 0.07 0.04 0.15 0.07c-0.18 0.16-0.4 0.27-0.6 0.4q0.15-0.16 0.29-0.33zm-71.7-113.43q0.71 1.47 1.43 2.95c-0.67-0.88-1.06-1.92-1.43-2.95zm-37.96-53.57q-0.04-0.05-0.08-0.1 0.05 0.04 0.09 0.09-0.01 0-0.01 0.01zm26.61 49.06q0.17 0.22 0.34 0.42-0.14 0.87-0.21 1.73-0.24-1.12-0.58-2.19 0.23 0.04 0.45 0.04zm-46.34 14.81q-0.05 0.08-0.1 0.16-0.27-0.12-0.53-0.24 0.31 0.04 0.63 0.08zm199.82 97.83q0.22-0.37 0.09-0.8 0.93 1.2 1.92 2.71-0.97-0.99-2.01-1.91zm-0.69-1.65q0.01-0.05 0.02-0.11 0.12 0.15 0.25 0.3-0.14-0.09-0.27-0.19zm-42.75-32.55q-0.04-0.07-0.08-0.14 0.18 0.18 0.35 0.36-0.14-0.11-0.27-0.22zm-14.63-14.26q-0.06-0.06-0.12-0.11 0.03-0.08 0.04-0.16 0.19 0.16 0.38 0.32-0.15-0.03-0.3-0.05zm45.86 14.81q0.38 0.12 0.75 0.13 0.67 0.59 1.34 1.17-1.25-0.66-2.51-1.29 0.22 0.01 0.42-0.01zm8.22 4.68q0.08 0.07 0.15 0.13-0.1-0.06-0.2-0.12 0.03 0 0.05-0.01zm-7.79-13.02q0.59 0.38 1.19 0.75-0.49-0.23-0.98-0.47-0.1-0.14-0.21-0.28zm66.33-0.71c4.35 4.02 8.17 8.77 13.43 11.68 3.01 1.8 7.31 2.12 9.78 4.6q-5.22 0.66-10.43 1.36-1.71 0.01-3.37-0.27c0.08-0.21-16.18-6.97-24.74-8.23-2.37-5.47-4.8-10.9-7.54-16.07 3.33-1.66 6.64-3.22 9.98-4.84 4.27 3.95 8.66 7.77 12.89 11.77zm-23.26-7.83q-0.04-0.08-0.08-0.15c3.21-1.53 6.41-3.08 9.64-4.54q0.09 0.09 0.19 0.18c-3.21 1.61-6.44 3.18-9.71 4.63q-0.02-0.06-0.04-0.12zm-24.23-25.05q-0.01-0.04-0.03-0.09 0.14 0.09 0.29 0.19-0.13-0.05-0.26-0.1zm10.44-111.67c5.11-1.63 9.28-5.06 13.91-7.6 4.42-2.47 9.27-4.37 14.02-6.42-7.97 18.59-26.97 22.97-42.62 33.16 0.65-0.91-0.58-2.12-1.41-1.26-9.99 10.85-22.61 20.89-27.31 34.79-1.79 3.37-3.42 6.95-5.05 10.57-5.25 7.74-12.65 12.93-22.46 13.62-3.86 0.32-7.95 0.14-11.57 1.62 6.2-12.5 8.51-26.63 7.44-40.47 2.5-3.11 5.62-5.61 9.09-7.62 13.04-8.45 26.58-16.11 40.07-23.82 8.17-3.49 16.7-5.96 25.89-6.57zm-80.55 78.94c2.02-0.56 4.13-0.74 6.25-0.87q-3.12 0.45-6.25 0.87zm-19.68-127.17c11.32 24.16 16.77 50.51 20.95 76.64 0.08 0.04 0.43 1.5 0.59 2.2 0 0.15-2.4 20.43-3.1 22.92q-0.59 0.33-0.99 1.09-3.3 6.54-6.6 13.08-2.4 3.3-4.99 6.46c-0.27-4.83-1.28-16.2-1.82-17.12q0.01 0 0.01 0c-2.11-4.83-4.91-9.26-8.39-13.2-4.76-7.44-11.79-14.52-16.49-23.18-1.85-5.82-3.81-13.68-5.73-18.41-8-24.92 14.2-33.23 26.56-50.48zm20.35 98.6q-0.23 1.45-0.49 2.87-0.15-0.02-0.3-0.01 0.42-1.42 0.79-2.86zm-29.61-11.76q-3.38-4.43-6.88-8.78c-0.28-0.35-0.65-0.53-1.05-0.59q-0.02-0.03-0.05-0.06c0.14-0.85-0.61-1.5-1.1-2.25 3.22 4.07 6.57 8.18 9.66 12.44q-0.29-0.38-0.58-0.76zm-5.1 50.36q-0.17 0.22-0.34 0.45 0.45-1.02 0.97-1.98-0.33 0.76-0.63 1.53zm-8.34 12.85q-0.07 0.02-0.15 0.03 0.09-0.03 0.17-0.07-0.01 0.02-0.02 0.04zm-2.88 0.7q-0.05-0.1-0.1-0.2 0.41 0.03 0.82 0.01-0.36 0.09-0.72 0.19zm-81.63-98.23q0-0.02 0-0.03 0 0 0 0 0 0 0 0.03zm29.68 79.07q-0.05 0.05-0.09 0.09-0.65 0.12-1.3 0.25 0.74-0.19 1.47-0.41-0.04 0.04-0.08 0.07zm-53.46-12.95c1.51 2.53 2.84 5.45 3.9 8.94 2.14 2.74 8.79 5.82 8.99 5.9-12.96-1.72-29.22-9.44-38.32-18.81-1.77-2.12-2.96-4.69-4.33-7.11 9.41 4.85 19.45 8.36 29.76 11.08zm-2.83 32.54q2.86-0.28 5.65-1.02c-1.71 0.57-3.58 0.95-5.65 1.02zm62.02 39.39q-0.02 0.05-0.05 0.1-0.44 0.1-0.75 0.33-1-0.12-2.01-0.26 1.41-0.07 2.81-0.17zm-30.18 0.19q0.27 0.07 0.54 0.15-0.89 0.2-1.81 0.43 0.62-0.28 1.27-0.58zm42.44 67.28q2.6-2.18 5.32-4.62c-1.37 2.22-3.23 3.57-5.32 4.62zm9.62 16.61c3.43-0.56 6.82-1.41 10.18-2.5q-2.73 1.25-5.57 2.24-2.29 0.24-4.61 0.26zm60.3-7.43q0.02 0.01 0.05 0.03-0.32 0.47-0.63 0.95 0.29-0.49 0.58-0.98zm33.19 26.89c0.18-0.17 0.26-0.43 0.15-0.74-11.31-22.75-14.98-29.7-15.88-46.82 2.15-3.34 3.41-6.52 3.34-10.48 1.13-1.42 2.22-17.27 2.45-21.93 1.87-0.38 2.63-2.75 2.76-4.25 1.99 2.01 4.13 3.81 6.38 5.46 4.28 4.64 7.92 7.31 11.14 10.18 2.71 10.41-1.12 20.89-2.09 31.27-0.65 7.54-0.11 15.08 0.77 22.58-0.52 7.67-0.41 15.45-0.06 23.19-3.06-2.75-6.15-5.47-8.96-8.46zm11.61-43.26c1-5.46 2.32-10.91 2.61-16.39 0.32 5.47-1.1 10.92-2.61 16.39zm15.28 25.93q-0.18-0.06-0.33-0.05 0.02-0.65 0.07-1.3 0.13 0.68 0.26 1.35zm1.48 8.18q0.23-0.13 0.38-0.68 0.47 1.57 1.03 3.12-0.76-1.19-1.41-2.44zm-14.7-66.51q-0.69-0.44-1.38-0.89 0.06-0.04 0.11-0.1 0.63 0.5 1.27 0.99zm34.31-16.95c0.78 0.15 1.51 0.27 2.24 0.61q-1.12-0.29-2.24-0.61zm34.23 5.4q0.16-0.23 0.23-0.5 1.16 0.29 2.32 0.6-1.28-0.04-2.55-0.1zm6.91-1.9c2.07 0.47 4.1 1.15 6.08 1.89q-3.02-1.04-6.08-1.89zm-7.92-25.07q-0.08-0.07-0.15-0.13 0.95-0.43 1.9-0.84 0.04 0.02 0.08 0.03-0.91 0.48-1.83 0.94zm-2.3-2.16q-0.31-0.29-0.61-0.59 0.53 0.2 1.06 0.41-0.22 0.09-0.45 0.18zm-3.05-1.5q0.99 0.98 2 1.94c-3.04 1.28-6.05 2.6-9.08 3.88q-1.99-3.46-4.25-6.69c-0.54-1.13-1.46-2.35-2.6-3.6q1.09 0.36 2.31 0.43c3.91 1.21 7.78 2.6 11.62 4.04zm31.3-72.8c0.11 0.44 0.67 0.58 0.95 0.14 3.89 0.6 7.78 1.33 11.67 2.11-6.5 3.84-13.09 7.49-20.31 9.68-2.25 0.46-12.26 2.15-23.42 4.36-6.32 0.62-12.64 1.2-18.67 2.9 3.29-3.59 6.4-7.46 8.88-9.72 0.37-0.74 4.52-4.93 9.07-9.68 10.61-1.96 21.23-1.37 31.83 0.21zm-101.32 13.23q-0.12-0.02-0.25-0.03 0.29-0.33 0.57-0.65-0.16 0.34-0.32 0.68zm-50.88-122.3c-2.12-4.2-4.3-8.44-6.29-12.75 11.07-7.6 20.45-17.6 27.47-29.01 3 18.06 13.14 31.49 12.94 50.94q0.02 3.84 0.16 7.68c-1.99 9.57 0.2 19.46-1.69 29.04-1.07 7.4-5.45 15.75-8.06 23.83-3.11-15.68-8.8-34.12-14.96-49.38 2.08-8.61 4.09-17.26 6.15-25.88 0.15-0.65-0.86-0.93-1.01-0.28q-2.9 12.23-5.8 24.46c-2.75-7.09-5.09-12.31-6.25-13.77q-0.16-0.29-0.41-0.32-0.02-0.03-0.03-0.07c3.05-4.57 4.21-10.34 8.15-14.33 0.47-0.47-0.27-1.2-0.74-0.73-3.86 3.9-5.07 9.42-7.96 13.94q-0.83-1.7-1.67-3.37zm21.86 123.06q0.32-0.87 0.62-1.74-0.43 1.39-0.92 2.76 0.15-0.51 0.3-1.02zm-83.04 23.71q0.54 0.85 1.14 1.68-0.87-0.65-1.7-1.38 0.29-0.11 0.56-0.3zm6.09-122.75c-3 5-6.03 9.6-8.24 14.65 0.38-5.95 1.73-11.81 2.89-17.7q2.65 1.51 5.35 3.05zm-6.29-3.59c-1.37 7.01-3.04 13.98-3.09 21.09q-0.14 0.41-0.28 0.83c-0.43-7.46 1.44-14.85 3.03-22.12q0.17 0.1 0.34 0.2z"/>
		<path id="&lt;Path&gt;" class="s0" d="m555.97 406.92c2.55 2.24 7.24 0.41 6.51-3.34 2.21 0.56 5-2.25 3.9-5.96-1.72-4.33 3.01-4.98 6.11-3.83 3.16 2 3.43 0.86 4.73-2.1 2.17-3.21 1.95 7.49 8.76 0.52 1.96 1.92 2.04 6.08 3.04 5.37 1.64-1.13 5.19-2.82 6.24-0.19 0.33 3.35 3.22 3.48 5.91 3.75 6.35 1.87-4.56 5.28 4.66 6.43-0.78 1.85-1.5 4.07-0.38 5.88 0.89 1.44 2.91 2.44 4.46 1.38 0.55-0.37 0.03-1.27-0.53-0.89-1.15 0.79-2.61-0.14-3.16-1.24-0.82-1.67 0.13-3.76 0.81-5.3 0.39-1.18-2.83-1.01-4.07-1.54-0.15-0.52 0.8-1.33 1.04-1.72 1.83-3.84-3.7-4.07-6.14-4.54-0.91-0.34-1.23-1.01-1.45-1.91-0.62-3.65-4.8-2.96-7.28-1.43-0.42-1.94-1.41-3.72-2.81-5.13-0.86-0.67-2.48 2.51-4.2 2.36-1.41 0.17-1.8-1.26-2.35-2.24-3.17-3.99-3.74 2.3-5.1 2.61-3.29-2.73-11.68-2.44-9.28 4.11 0.48 2.19-0.25 5.39-3.19 4.37-0.41-1.2-1.14-1.89-1.69-0.88q0.34 0.97 0.88 1.48c1.05 2.71-2.56 5.53-5.01 2.94-0.2-0.23-0.53-0.18-0.74 0-3.35 2.79-9.32 1.14-10.76-2.95-0.23-0.63-1.23-0.36-1.01 0.27 1.66 4.71 8.08 6.59 12.1 3.72z"/>
		<path id="&lt;Path&gt;" class="s0" d="m633.31 418.84c2.64 1.15 5.89 0.62 8.01-1.33 3.49 2.65 8.49 5.69 12.77 3.28 1.09 0.87 3.67 3.49 3.49 1.51-0.71-1.35 0.91-2.67 2.13-2.86 3.95 0.08 5.75 4.8 8.16 7.32 3.22 2.48-0.87 7.01 3.63 7.32 13.41-4.81-1.27 9.56 12.83 7.44-0.03 2.67-1.26 5.22-3.28 6.93-0.67 0.02-1.32 0.41-1.72 1.32 0.01 1.38 1.48 0.16 2.01-0.22 1.5 0.25 1.27 1.96 0.73 2.96-2.08 2.91-2.43 4.98-1.1 6.68-1.2-0.27-2.42-0.82-3.65-2.5-2.97-1.29-6.87 0.07-9.5-2.27-1.44-1.2-2.28-3.46-1.05-5.08 0.4-0.53-0.5-1.05-0.9-0.52q-0.28 0.41-0.45 0.84c-2.08-4.68-10.44-4.73-7.56-2.86 4.98-1.19 8.93 4.83 5.87 8.9-0.71 1.29 3.86 0.37 5.44 3.53 2.81 0.95-0.94-3.46-4.15-3.79q0.49-1.1 0.69-2.06c0.98 1.78 3.01 3.17 5.03 3.4 2.08 0.64 4.65-0.24 6.44 1.12 1.21 1.72 3.07 2.52 5.15 2.54 0.68 0.48 1.55 0.95 2.56 1.39 1.33 2.03 0.25 5.48 5.72 5.58 0.7 0.12 1.5 0.26 2.02 0.77 1.07 1.06 0.3 2.88-0.03 4.09-1.76 5.23 4.32 4.85 8.02 3.73-0.22 1.29 0.66 2.77 1.9 3.35 2.57 2.01 8.85-4.77 5.49-3.62-1.01 1.33-2.84 3.38-4.76 2.8-1.03-0.31-2.42-2.14-1.23-3.03 0.42-0.32 0.2-1.18-0.41-0.95-2.18 0.83-4.62 1.32-6.96 0.99-4.16-1.27 3.96-8.44-4.56-9.24-2.89-0.02-3.17-1.69-3.72-3.62 2.24 1.37 5.86 3.64 4.77 1.52-1.57-1.1-3.45-1.93-5.22-2.87q-0.02-0.05-0.05-0.1c-0.9-1.09-1.85-1.47-2.83-1.67q-1.01-0.76-1.79-1.74c-1.05-3.06 4.88-6.11 0.98-9.04 2.09-2.03 3.3-4.93 3.13-7.86-0.02-0.34-0.32-0.58-0.66-0.5-13.4 2.92 1.66-12.33-13.29-7.37-2.58-0.06 0.15-4.07-1.98-5.96-2.99-3.13-5.69-10.1-11.01-8.31-1.04 0.5-1.88 1.48-2.01 2.57-0.81-0.73-1.63-1.57-2.57-1.61-4.05 2.52-9-0.81-12.19-3.28-0.22-0.17-0.52-0.22-0.74 0-1.97 2.07-5.29 2.57-7.78 1.14-0.37-0.21-0.75 0.06-0.79 0.45-0.42 5.35-6.86 9.8-11.93 7.4-1.31-0.68-2.63-1.97-2.32-3.58 0.12-0.65-0.88-0.93-1.01-0.27 0.01 8.99 14.99 6.18 16.23-2.76z"/>
		<path id="&lt;Compound Path&gt;" fill-rule="evenodd" class="s0" d="m711.29 467.97c5.89-1 8.82 5.65 13.77 7.34-0.26 8.77 4.62 10.13 6.37 17.8 0.49 3.59-4.13 4.98-4.79 8.38-0.48 1.15-1.33 4.15 0.55 4.3 2.37 0.02-4.36 5.95 0.21 9.69 1.19-0.94 2.93-0.51 3.49 0.54 0.48-0.06 0.76-0.01 0.69 0.53q-0.1 0.21-0.19 0.45c0.92 2.24 1.13 5.49 3.47 5.13 0.62-0.24 0.89 0.76 0.28 1-0.76 0.31-1.37 0.24-1.88-0.07-1.42 0.14-4.51-1.09-3.03-5.81-0.87 0.15-1.75-0.03-2.55-0.43q-0.1 0.11-0.21 0.24c-1.34 3.52-4.75 5-5.36 0.21-1.42-2.78-6-4.49-4.86-8.23 0.85-1.78 2.96-3.23 0.01-4.38-4.58-2.19 1.01-7.26-5.08-8.43-2.69-0.94-1.08-3.42-1.98-5.22-1.68-2.18-4.72-0.96-6.67 0.17-3.41-0.39 5.1-4.05 6.98-1.36 1.78 1.26 0.43 3.4 1.3 4.94 1 0.94 2.57 0.92 3.59 1.86 2.32 1.99-0.84 6.18 2.72 7.33 4.56 2.18-1.57 4.86 0.46 7.68 1.39 2.42 4.63 3.65 4.88 6.7 0.08 0.47 0.23 1.02 0.81 0.96 1.46-0.31 1.77-1.9 2.49-3.06-3.04-2.35-2.09-6.6-0.31-9.48-1.49-0.5-1.69-3.05-1.17-4.43 0.67-4.51 5.75-6.52 5.12-9.11-1-5.99-7.56-10.63-6.09-17.06-4.45-1.68-6.98-7.24-12.09-7.25-2.25-0.01-4.65 2.78-3.17 4.85 0.11 3.5-4.5-3.67 2.24-5.78zm19.67 50.85c-0.14 1.34 0.15 2.69 1.28 3.1-0.53-0.88-0.91-2.04-1.28-3.1zm-2.38-2.73q0.54 0.13 1.03 0.1c-0.29-0.23-0.63-0.28-1.03-0.1z"/>
		<path id="&lt;Path&gt;" class="s0" d="m735.74 525.47c2.63-1.69 6.04-1.92 8.86-0.6-4.85 5.7 2 0.98 4.92 3.26 1.23 0.78 2.14 2.51 1.25 3.85-0.26 0.39 0.17 0.87 0.59 0.76 4.62-1.24 7.87 4.88 4.24 7.98-0.51 0.45 0.22 1.14 0.73 0.73 1.75-1.41 4.45 0.25 4.99 2.12 1.33 4.74-5.84 6.11-3.87 7.08 1.27 0.38 2.78 0.8 3.6 1.92 2.74 4.59-5.57 2.25-4.66 6.52 4.6 8.24-1.52 7.84 3.08 14.59 1.09 0.89 1.46 14.18 3 10.55-0.85-4.75-0.83-9.76-3.67-13.84-0.29-5.6 2.01-5.4-1.35-11.32-0.43-2.84 3.89-1.48 4.81-3.6 1.25-2.54-0.93-4.54-3.21-5.43 5.49-3.16 3.59-10.85-1.56-9.98 2.17-3.71-0.98-8.98-5.48-8.49 1.03-3.93-3.7-5.59-7.33-5.05 0.74-0.8 1.52-1.65 1-2.26-4.23-3.13-13.49 0.63-9.94 1.21z"/>
		<path id="&lt;Path&gt;" class="s0" d="m765.6 599.42c-0.95 1.26-2.55 2.96-1.18 4.51 0.56 0.79 1.74 0.08 2.24 0.78 0.65 0.79-0.81 10.36 1.16 7.59-0.47-2.87 1.77-9.26-2.62-9.06-0.27-0.23-0.29-0.7-0.22-1.01 0.84-1.77 2.56-3.21 2.22-5.42 0.83-1.19-3.76-17.3-4.7-12.85 2.34 4.55 4.76 10.38 3.1 15.46z"/>
		<path id="&lt;Path&gt;" class="s0" d="m770.88 640.88c-0.32-4.57-2.26-2.43-5.04-3.8-2.16-1.32-2.28-4.46-0.21-5.95 0.89-0.65 2.22-0.93 2.18-2.29-0.26-2.13-3.47-3.09-2.5-5.57 0.25-1.94 2.81-1.9 2.38-2.89-0.72-0.76-6.04-14.28-6.22-10.26q2.53 5.11 5.05 10.22c-1.63 0.73-2.58 2.62-2.35 4.38 0.1 1.78 1.95 2.53 2.58 4.02 0.15 0.68-0.68 0.95-1.15 1.19-2.12 1.11-3.13 3.83-2.12 6.01 1.9 3.93 5.18 1.79 6.03 3.37 0.98 3.21 0.5 6.82-0.71 9.92 1.45 3.28 2.74-7.44 2.08-8.35z"/>
		<path id="&lt;Path&gt;" class="s0" d="m774.59 659.25c-0.41-1.77-2.56-3.49-4.28-2.64-0.79-0.91-2.95-0.42-2.67 1.11 0.13 0.66 1.13 0.38 1.01-0.28-0.06-0.29 0.9-0.42 0.91-0.05 0 0.44 0.57 0.7 0.89 0.37 1.59-1.22 3.31 1.14 3.33 2.65 0.33 5.27-5.35 9.64-3.69 15.04 1.66 4.27 5.7 6.63-0.58 9.26-1.93 1.71-1.34 4.63-1.97 6.91-1.23 3.82-1.55 13.09-5.67 14.37-1.42 0.53-6.13 1.06-5.2 3.2 2.06 1.2 4.04 3.44 4.1 5.89-0.81 0.74-2.4-0.31-3.32 0.99-1.02 1.16-0.93 3.01-0.97 4.45-0.02 3.92-3.41 7.45-7.36 7.6-0.66 0.03-0.67 1.07 0 1.04 4.08-0.17 7.74-3.45 8.31-7.48 0.29-1.61-0.23-3.56 0.82-4.95 0.65-0.7 1.68-0.2 2.49-0.41 2.92-1.59-0.77-6.23-3.02-7.72 1.17-1.19 3.33-1.17 4.8-1.74 4.63-1.64 5.44-13.56 6.51-18.07-0.45-4.67 5.06-3.36 4.95-7.39-0.81-3.83-4.73-6.77-2.48-11.02 1.25-3.6 4.19-7.13 3.09-11.13z"/>
		<path id="&lt;Path&gt;" class="s0" d="m776.15 635.01c-0.42-0.45-0.84-0.88-0.81-1.53 1.08-2.99-0.09-5.87-2.86-7.39-1.3-1.91 1.56-3.9 0.83-5.98-0.52-2.02-3.14-3.2-4.96-2.1-0.57 0.34-0.05 1.24 0.53 0.89 1.36-0.82 3.51 0.32 3.48 1.95-0.03 1.81-1.94 3.39-1.09 5.26 3.58 3.62 3.69 2.5 3.08 7.94 0.2 1.02 1.1 1.55 1.65 2.37 1.03 1.53 0.32 4-1.42 4.7-1.44 0.68 2.45 2.16-0.3 4.42-0.58 0.33-0.05 1.23 0.52 0.89 1.65-0.96 1.9-3.28 0.78-4.69 2.21-1.45 2.63-4.9 0.57-6.73z"/>
		<path id="&lt;Path&gt;" class="s0" d="m774.59 653.99c-0.67 0-0.67 1.04 0 1.04 0.67 0 0.67-1.04 0-1.04z"/>
		<path id="&lt;Path&gt;" class="s0" d="m468.07 814.62c3.03 1.78 5.32 4.87 8.07 7.13 0.48 0.46 1.22-0.28 0.73-0.73-3.02-2.29-5.33-6.18-8.91-7.44-1.12-0.02-1.38 1.21-0.97 2.05 1.47 3.15-1.43 8.28-4.76 4.89-2.29-2.43-5.92-3.43-9.12-2.53-0.42-4.45-6.11-5.39-9.87-4.74-0.17 0.01-0.38 0.08-0.45 0.26-0.53 1.23-2.23 1.36-3.25 0.65-1.51-1.32 0.04-3.6-0.78-5.29-1.29-6.57-13.6-3.59-9.05-12.13 0.44-0.5-0.3-1.24-0.73-0.73-1.93 2.2-1.55 5.87 0.71 7.7 1.92 1.52 4.73 1.14 6.51 2.91 2.04 1.73 1.77 4.35 1.65 6.72 0.44 2.54 4.52 3.1 5.73 0.9 3.38-0.47 8.58 0.13 8.51 4.45-0.03 0.32 0.36 0.61 0.66 0.5 6.33-2.05 7.07 2.13 11.39 3.48 3.56 0.07 4.98-4.08 3.96-6.98-0.08-0.28-0.55-1.11-0.03-1.07z"/>
		<path id="&lt;Path&gt;" class="s0" d="m370.22 742.14c3.24 2.21 1.53 7.09 6.5 3.04 1.4-0.58 3.24 0.63 3.21 2.14 1.27 1.99 1.75-2.13-1.24-3.08-2.31-1.04-3.12 1.11-4.87 1.46-1.36-5.03-7.03-4.72-1.88-9.01 0.82-1.37 0.24-2.97-0.71-4.1-2.3-2.88-6.91-1.87-9.09-4.85-2.6-3.78 0.32-8.26 2.7-11.28 0.4-0.52-0.33-1.25-0.74-0.73-3.41 3.76-6.39 10.85-0.99 14.26 2.7 1.61 7.86 1.27 8.18 5.32-0.79 2.92-4.89 3.11-1.07 6.83z"/>
		<path id="&lt;Path&gt;" class="s0" d="m395.47 767.74c2.16-0.41 1.37-3.44 0.38-1.69q-0.02 0.24-0.14 0.39c-0.98-2.88-6.63 0.08-5.26-4.78 0.29-3.4-3.8-2.14-5.25-3.9-0.18-0.29-0.49-0.93-0.01-1.08 0.64-0.2 0.37-1.2-0.27-1-1.89 0.65-0.77 3.14 0.61 3.72 1.11 0.53 2.59 0.21 3.54 1.08 0.99 1.74-0.94 4.48 2.11 5.16 0.93 0.24 3.82 0.03 3.63 1.6-0.04 0.37 0.37 0.56 0.66 0.5z"/>
		<path id="&lt;Path&gt;" class="s0" d="m337.46 668.89c1.31 4.27 9.95-0.87 6.62-0.94-5.36 3.55-6.04 1.31-5.97-3.98-0.34-1.43-2.1-2.93-3.45-2.22-1.1-3.13 5.95-5.76 0.29-9.3-3.52-2.12-0.44-3.24-2.03-3.68-3.66 0.36-5.08-3.84-3.05-5.96 3.19-0.55 2.62-3.5-0.46-1-5.13-1.31-0.92-7.45-0.98-10.81 0.01-0.67-1.03-0.67-1.04 0-0.03 3.22-2.52 6.34-1.14 9.59 0.37 1.04 1.33 1.8 2.39 2.09-1.73 2.66-0.25 6.91 3.49 7.13-0.69 2.57 3.57 3.35 3.95 5.55-0.08 2.57-4.37 4.86-1.97 7.55 0.79 0.58 0.99-1.02 2.12 0.03 1.89 1.48 0.33 4.04 1.23 5.95z"/>
		<path id="&lt;Compound Path&gt;" fill-rule="evenodd" class="s0" d="m331.93 620.95q-0.01-0.04-0.04-0.07-0.04-0.04-0.08-0.08c-0.15-0.09-0.19-0.11-0.37-0.15-0.11-0.01-0.28-0.02-0.43 0.04q-0.05 0.03-0.11 0.06c-0.6 0.56-0.51 1.54-0.48 2.28 0.02 0.29-0.25 0.52-0.52 0.52-0.92-0.17-0.48-1.57-0.45-2.23 0.1-1.59 2.13-2.09 3.05-1.31 0.28-0.57 0.59-1.1 1.18-0.92 0.7 0.65-0.43 1.54-0.76 2.24q0 0.01 0 0.01 0 0 0 0-0.03 0.06-0.05 0.12c-0.46 0.67-1.2-0.16-0.94-0.43q0.01-0.04 0-0.08zm0.01 0.03q0 0.01 0 0.03 0.01-0.01 0-0.03z"/>
		<path id="&lt;Path&gt;" class="s0" d="m330.5 608.53c3.54 0.07-6.89-5.39-7.46-6.11-2.91-1.48-1.44-4.72 0.32-6.51 0.32-0.38 0.02-1.03-0.51-0.87-2.07 0.51-3.32-2.2-2.18-3.77 1.15-3.02 7.95-2.17 6.26-3.7-1.84-0.91-2.29-3.35-1.51-5.12 0.99-2.23 3.51-3.34 5.75-3.82 0.66-0.14 0.38-1.14-0.27-1-4.79 0.44-9.23 6.31-5.59 9.96-6.67 0.85-8.06 7.64-3.38 8.39-5.31 6.64 3.97 8.89 8.57 12.55z"/>
		<path id="&lt;Path&gt;" class="s0" d="m457.75 426.15c1.47-1.75 4.13-2.34 6.18-1.29 0.6 0.31 1.13-0.59 0.53-0.89-4.13-2.51-9.81 2.65-6.71 2.18z"/>
		<path id="&lt;Path&gt;" class="s0" d="m536.19 409.27c-3.01-2.31-5.32-7.08-8.42-3.47-0.52-5.3-8.74-6.48-11.77-1.58-0.72 0.5-3.84 6.89-1.32 5.08 0.89-3.59 3.86-7.88 8.07-7.21 2.38 0.46 4.81 2.86 3.88 5.4 0.24 0.95 0.54 0.78 0.96 0.25q0.02 0.01 0.05 0.02 0.01-0.05 0.02-0.1c4.73-7.38 6.64 8.47 12.89 0.64 2.55-2.21-0.98 6.58 8.41 4.02 2.01 5.44 9.88 2.21 6.53 1.66-2.1 1.25-5.15-0.07-5.68-2.43-0.06-0.27-0.38-0.44-0.64-0.36-9.2 3.01-4.17-5.55-8.77-4.05-1.4 0.77-2.31 3.07-4.21 2.13z"/>
		<path id="&lt;Path&gt;" class="s0" d="m604.77 426.7c-0.66 0.14-0.38 1.14 0.27 1q2.23-0.5 4.46-0.99c-0.17 1.69 0.76 3.47 2.33 4.21 1.32 0.79 6.18-0.24 5.23 2.42-0.57 2 2.42 0.31 0.66-1.86-2.17-2.48-7.99 0.52-7.03-5.31 0.15-1.6-4.84 0.59-5.92 0.53z"/>
		<path id="&lt;Path&gt;" class="s0" d="m579.57 412.16c0.79 2.67 4.02 1.37 6 1.7 1.46 0.35 1.04 2.06 1.27 3.17 2.2 4.2 4.69-0.01 5.96 8.73 0.61 2.58 1.68 5.48 4.31 6.62 0.61 0.27 1.14-0.62 0.53-0.89-5.71-2.56-2.17-12.07-8.8-13.56-2.8-2.1 1.11-5.98-6.04-5.01-2.93-0.08-2.45-1.31-1.05-3.18 1.56-4.49-7.66-3.05-4.48-1.75 1.18-0.45 3.6-0.71 3.61 1.1-0.3 1.07-1.61 1.82-1.31 3.07z"/>
		<path id="&lt;Path&gt;" class="s0" d="m626.64 434.34c-2.04-1.65-5.83 0.16-3.3 0.55 0.95-0.43 2.1-0.23 2.86 0.47 0.18 0.16 0.43 0.2 0.64 0.08 3.25-1.8 7.56-1.21 10.22 1.38 3.71 0.22-4.9-5.75-10.42-2.48z"/>
		<path id="&lt;Path&gt;" class="s0" d="m741.62 536.91c1.78-1.02 3.26 1.52 3.34 3.05 0.18 1.99-0.05 4.17 1.4 5.77 0.45 0.49 1.19-0.24 0.74-0.74-1.62-1.78-0.6-4.5-1.42-6.58-0.53-1.36-1.95-2.94-3.48-2.81 0.51-1.77 0.57-3.89-0.93-5.14-1.29-1.09-3.49-1.24-4.49 0.31-0.36 0.56 0.54 1.08 0.9 0.52 0.69-1.07 2.38-0.66 3.12 0.15 1.2 1.31 0.64 3.44 0.06 4.89-0.17 0.41 0.41 0.83 0.76 0.58z"/>
		<path id="&lt;Path&gt;" class="s0" d="m751.15 562.73c0.39 0.57 1.05 0.64 1.68 0.66 3.32 0.43-1.52 3.49-1.01 5.17 0.03 0.32 0.32 0.6 0.66 0.5 1.24-0.37 1.54 1.68 1.31 2.48-0.48 1.59-1.77 2.83-1.64 4.6 0.05 0.66 1.09 0.66 1.05 0-0.15-2 1.82-3.43 1.72-5.42-0.07-1.18-0.77-2.59-1.97-2.73 0.38-1.25 1.9-2.02 2.02-3.43 0.38-1.7-1.19-2.33-2.6-2.23-0.98-0.18 0.12-1.26 0.44-1.58 2.63-2.33 0.98-7.27-2.5-7.63-0.66-0.09-0.66 0.95 0 1.03 2.25 0.28 3.49 3.37 2.32 5.21-0.6 0.96-2.39 2.05-1.48 3.37z"/>
		<path id="&lt;Path&gt;" class="s0" d="m753.97 584.69c3.21 0.25 3.22 5.09 0.01 5.36-2.27 1.96 3.74 0.99 3.53-2.69 0.19-3.68-5.81-4.62-3.54-2.67z"/>
		<path id="&lt;Path&gt;" class="s0" d="m758.19 621.29c3.14-2.08 2.06-10.31-1.02-12.84 2.37-0.99 4.12-3.34 4.25-5.92 0.73-4.91-7.11-8.67-5.21-5.78 5.66 1.51 5.31 10-0.45 11.06-0.41 0.08-0.54 0.77-0.13 0.94 3.28 1 4.64 9.85 1.95 11.71-1.33 2.51-3.13 5.07-6.19 5.67-1.95 2.79 5.82-0.72 6.8-4.84z"/>
		<path id="&lt;Path&gt;" class="s0" d="m736.15 722.19c-0.58 0.28-2.24 0.9-1.09 1.55 0.62-0.07 1.49-0.45 1.85-0.96 0.13-0.44-0.37-0.82-0.76-0.59z"/>
		<path id="&lt;Path&gt;" class="s0" d="m755.97 706.77c3.84-4.15-8.3-12.75 3.38-12.06 2.57-1.61-5.29-1.67-5.81 0.71-1.72 3.36 2.44 6.18 2.2 9.48-0.14 1.06-1.02 1.62-1.79 2.23-2.84 2.52-1.1 7.99-7.02 7.14-0.38-0.09-0.77 0.25-0.64 0.64 0.32 4.25-5.71 1.46-5.49 2.86 0.19 1.73-0.99 3.38-2.72 3.74-0.65 0.14-0.37 1.14 0.28 1 1.92-0.4 3.38-2.16 3.5-4.09 2.37 0.41 5.59-0.47 5.52-3.08 6.8 0.41 4.21-5.84 8.59-8.57z"/>
		<path id="&lt;Path&gt;" class="s0" d="m759.01 678.38c0.23 0.18 0.58 0.2 0.73-0.15 1.58-2.66 2.64-0.19 2.66-3.81 1.84 0.54 4.09-0.9 4.27-2.85 0.13-1.49-1.03-2.57-1.71-3.77-1.61-1.9 0.35-5.99-1.26-5.34-5.78 0.93-2.3-6.41-2.45-9.84 1.2-0.06 2.69 0.29 3.48-0.47 0.64-0.73 1.48-10.29-0.41-7.14 0.31 2.19 0.12 4.42-0.51 6.55-1.22 0.09-3.54-0.42-3.63 0.75 0.51 2.88-1.49 5.61-0.77 8.52 0.41 1.66 2.1 3.14 3.81 2.89-0.41 2.4 0.73 4.69 2.15 6.63 1.09 1.88-1.55 3.99-3.24 2.8-1.2-0.25-0.82 1.56-0.86 2.6-0.92 0.21-1.72 0.74-2.21 1.54-0.29-3.31-4.27-5.94-3.36-3.47 3.11 1.43 2.93 6.14-0.28 7.34-0.32 0.14-0.31 0.6-0.11 0.82 0.95 0.98-0.06 2.85-1.37 2.73-0.67-0.06-0.66 0.97 0 1.03 2.03 0.19 3.35-2.31 2.48-3.97 1.64-1.04 2.39-2.23 2.59-3.39z"/>
		<path id="&lt;Path&gt;" class="s0" d="m641.67 785.5q0 0 0 0 0 0 0 0 0 0 0 0z"/>
		<path id="&lt;Path&gt;" class="s0" d="m683.51 775.89c1.77-0.86 3.64-1.55 5.43-2.37 0.62-0.26 0.09-1.15-0.52-0.89q-1.42 0.61-2.83 1.22c-9.03 2.64 4.14 6.29-8.31 11.91-0.6 0.29-0.07 1.18 0.53 0.9 3.38-1.42 7.68-4.56 5.9-8.73-0.29-0.62-1.07-1.58-0.2-2.04z"/>
		<path id="&lt;Path&gt;" class="s0" d="m716.84 740.01c-0.19-0.64-1.19-0.37-1.01 0.28 1.01 3.05-2.45 5.95-5.3 4.43-0.51-0.26-1.06 0.38-0.63 0.81 0.39 0.39 0.25 0.98-0.07 1.37-2.22 1.64-3.61-1.97-3.57-3.74-0.07-0.65-1.12-0.66-1.04 0 0.11 6.44 6.32 6.19 5.85 2.87 3.37 0.85 6.91-2.47 5.77-6.02z"/>
		<path id="&lt;Path&gt;" class="s0" d="m598.86 804.14c0.1 2.85-1.56 7.79-5.26 6.18-1.92-0.76 1.01 6.44-3.46 7.61-1.7 0.3-2.5 1.76-3.09 3.23-1.23 2.53-5.09 3.09-7.03 1.06-0.29-0.31-0.92-0.09-0.89 0.36 0.09 4.46-4.19 5.52-7.37 3.23-2.32 0.85-5.18-0.38-6.05-2.72-0.23-0.62-1.23-0.35-1 0.27 1.01 2.76 4.23 4.39 7.05 3.53 3.01 2.65 7.98 0.56 8.41-3.24 3.37 2.22 7.55-0.08 8.76-3.89 4.35-1.99 5.28-3.72 4.99-8.21 5.87 1.75 7.19-10.47 4.94-7.41z"/>
		<path id="&lt;Path&gt;" class="s0" d="m618.85 804.5c-0.69 1.86-2.92 1.67-4.15 0.49-2.29-0.89-2.13 2.45-5.62-0.84-0.5-0.45-1.24 0.28-0.74 0.73 4.04 3.94 4.64-0.18 6.58 1.5 3.87 2.52 6.45-3.65 3.93-1.88z"/>
		<path id="&lt;Path&gt;" class="s0" d="m359.66 496.68c-1.57-0.32-9.76-6.51-9.36-2.99 0.31 0.62 1.19 0.65 1.42 0.11 11.33 5.86 22.99 11.8 35.83 13.45 7.39 1.06 15.7 1.2 21.67 6.17 1.47 2.27 3.19 4.38 5.12 6.28 0.48 0.47 1.22-0.27 0.74-0.73q-2.4-2.36-4.31-5.13c0.23-0.47-0.46-0.81-0.74-1.11-2.72-4.25-4.54-9.07-5.25-14.07-0.25-1.73-0.34-3.71-2.15-4.55-6.06-1.79-12.17-3.62-17.88-6.4q-6.5-3.04-12.48-7c-0.56-0.37-1.08 0.53-0.52 0.9 9.39 6.8 20.73 10.09 31.26 14.11 1.39 5.17 1.92 10.74 4.87 15.43-3.02-1.91-6.49-2.91-10.06-3.55-0.05-1.35-0.84-1.68-1.08-0.94q-9.64-10.09-19.27-20.17c-0.47-0.49-1.2 0.24-0.74 0.73q9.58 10.03 19.16 20.06c-2.87-0.43-5.78-0.7-8.54-1.1-9.76-1.4-18.93-5.12-27.69-9.5z"/>
		<path id="&lt;Path&gt;" class="s0" d="m457.3 783.99c6.08-2.05 11.68-5.48 16.19-10.04 0.47-0.47-0.26-1.2-0.74-0.73-9.47 10.63-22.96 8.4-30.51 20.62-0.76 1.63-5.44 6.35-3.11 7.65 0.61 0.25 1.14-0.64 0.52-0.9-0.69-0.29 1.08-2.61 1.32-2.99 3.71-6.32 9-11.78 16.33-13.61z"/>
		<path id="&lt;Path&gt;" class="s0" d="m713.97 663c-0.45-0.51-1.18 0.23-0.74 0.73 4.98 5.62 11.04 10.27 17.77 13.63 0.76 0.31 8.04 4.19 6.1 1.52-8.87-3.3-16.89-8.81-23.13-15.88z"/>
	</g>
</svg>